<svg xmlns="http://www.w3.org/2000/svg" viewBox="0 0 14 12"><defs><style>.cls-1{fill:#fff;}.cls-2{fill:none;}.cls-3{fill:#ccc;}</style></defs><g id="レイヤー_2" data-name="レイヤー 2"><g id="レイヤー_1-2" data-name="レイヤー 1"><polygon class="cls-1" points="14 0 3 0 3 3 0 3 0 12 11 12 11 9 14 9 14 0"/><polygon class="cls-2" points="3 6 1 6 1 11 10 11 10 9 3 9 3 6"/><polygon class="cls-2" points="4 3 4 8 13 8 13 3 11 3 4 3"/><path class="cls-3" d="M3,0V3H0v9H11V9h3V0Zm7,11H1V6H3V9h7Zm3-3H4V3h9Z"/></g></g></svg>