<svg xmlns="http://www.w3.org/2000/svg" viewBox="0 0 110 45"><defs><style>.cls-1,.cls-8{fill:#fff;}.cls-2,.cls-7{fill:#ccc;}.cls-3{font-size:14px;fill:#30353a;font-family:HiraKakuPro-W6-83pv-RKSJ-H, Hiragino Kaku Gothic Pro;}.cls-4{letter-spacing:-0.08em;}.cls-5,.cls-6{fill:none;}.cls-5{stroke:#dd2723;}.cls-5,.cls-6,.cls-7,.cls-8{stroke-miterlimit:10;}.cls-6,.cls-7,.cls-8{stroke:#ccc;stroke-width:0.91px;}.cls-9{fill:#888;}</style></defs><g id="レイヤー_2" data-name="レイヤー 2"><rect class="cls-1" x="-821.76" y="-34.52" width="950" height="100"/><rect class="cls-2" y="0.5" width="110" height="43.74" rx="5"/><rect class="cls-1" x="0.5" y="0.5" width="109" height="40.07" rx="4.5"/><text class="cls-3" transform="translate(6.54 27.53)">マイペ<tspan class="cls-4" x="42" y="0">ー</tspan><tspan x="54.88" y="0">ジ</tspan></text><polyline class="cls-5" points="96.2 27.38 101.78 22 96.28 16.5"/><rect class="cls-6" x="78.91" y="19.85" width="9.09" height="7.27"/><rect class="cls-7" x="78.91" y="19.85" width="9.09" height="1.82"/><rect class="cls-8" x="81.64" y="17.13" width="9.09" height="7.27"/><rect class="cls-7" x="81.64" y="17.13" width="9.09" height="1.82"/><path class="cls-9" d="M105,1.5a4,4,0,0,1,4,4V39.24a4,4,0,0,1-4,4H5a4,4,0,0,1-4-4V5.5a4,4,0,0,1,4-4H105m0-1H5a5,5,0,0,0-5,5V39.24a5,5,0,0,0,5,5H105a5,5,0,0,0,5-5V5.5a5,5,0,0,0-5-5Z"/></g></svg>