<svg xmlns="http://www.w3.org/2000/svg" viewBox="0 0 310 60"><path d="M100.046,49.111a11.8,11.8,0,0,0-1.353.067V47.924a11.62,11.62,0,0,0,1.375.065h6.271a11.375,11.375,0,0,0,1.376-.065v1.254a11.462,11.462,0,0,0-1.342-.067h-2.608v3.742h3.1a8.222,8.222,0,0,0,1.309-.078v1.288a9.391,9.391,0,0,0-1.386-.078h-3.026v2.453a12.8,12.8,0,0,0,.077,1.419h-1.4a12.136,12.136,0,0,0,.077-1.419V53.985H99.584a10.433,10.433,0,0,0-1.386.078V52.775a8.383,8.383,0,0,0,1.353.078h2.971V49.111Zm.231.309a11.615,11.615,0,0,1,1.365,2.585l-1.133.572a9.729,9.729,0,0,0-1.3-2.651Zm6.9.527a11.916,11.916,0,0,1-1.519,2.7l-1.089-.55a8.163,8.163,0,0,0,1.474-2.662Z" fill="#30353a"/><path d="M110.431,49.3c0-.43-.022-.815-.055-1.178a9.688,9.688,0,0,0,1.221.056h5.325a8.826,8.826,0,0,0,1.188-.056,9.939,9.939,0,0,0-.055,1.122v7.108a11.144,11.144,0,0,0,.066,1.331H116.79v-.661h-5.116v.661h-1.309a11.55,11.55,0,0,0,.066-1.331Zm1.243,2.6h5.116V49.343h-5.116Zm0,3.971h5.116V53.05h-5.116Z" fill="#30353a"/><path d="M122.025,54.9a1.833,1.833,0,0,0,.341.606,1.972,1.972,0,0,0,2.508,0,3.615,3.615,0,0,0,.858-2.619,2.148,2.148,0,0,1-.583.627,2.984,2.984,0,0,1-1.782.507,2.748,2.748,0,0,1-2.992-2.894,2.9,2.9,0,0,1,1.4-2.586,3.6,3.6,0,0,1,1.925-.483,3.121,3.121,0,0,1,3.026,2.167,7.043,7.043,0,0,1,.319,2.277,5.541,5.541,0,0,1-1.167,3.817,3.047,3.047,0,0,1-2.343.836,3.177,3.177,0,0,1-2.123-.637,3.122,3.122,0,0,1-.9-1.222Zm3.454-3.861a1.821,1.821,0,0,0-3.641.032,1.643,1.643,0,0,0,1.749,1.761A1.8,1.8,0,0,0,125.479,51.037Z" fill="#30353a"/><path d="M130.451,49.707v1.606h-1.607V49.707Zm0,4.708v1.606h-1.607V54.415Z" fill="#30353a"/><path d="M133.222,56.307A3.077,3.077,0,0,1,132.5,55.2a7.358,7.358,0,0,1-.429-2.53,6.484,6.484,0,0,1,.671-3.048,3.13,3.13,0,0,1,2.805-1.529,3.2,3.2,0,0,1,2.322.891,3.085,3.085,0,0,1,.726,1.112,7.393,7.393,0,0,1,.429,2.552,5.775,5.775,0,0,1-.814,3.256,3.12,3.12,0,0,1-2.673,1.3A3.169,3.169,0,0,1,133.222,56.307Zm3.51-.848a4.239,4.239,0,0,0,.77-2.827,4.267,4.267,0,0,0-.77-2.817,1.593,1.593,0,0,0-1.2-.461,1.479,1.479,0,0,0-1.233.561,4.1,4.1,0,0,0-.726,2.673,4.948,4.948,0,0,0,.561,2.618,1.614,1.614,0,0,0,1.408.716A1.6,1.6,0,0,0,136.732,55.459Z" fill="#30353a"/><path d="M141.549,56.307a3.077,3.077,0,0,1-.726-1.112,7.358,7.358,0,0,1-.429-2.53,6.484,6.484,0,0,1,.671-3.048,3.13,3.13,0,0,1,2.806-1.529,3.2,3.2,0,0,1,2.321.891,3.085,3.085,0,0,1,.726,1.112,7.393,7.393,0,0,1,.429,2.552,5.775,5.775,0,0,1-.814,3.256,3.12,3.12,0,0,1-2.673,1.3A3.169,3.169,0,0,1,141.549,56.307Zm3.51-.848a4.239,4.239,0,0,0,.77-2.827,4.267,4.267,0,0,0-.77-2.817,1.593,1.593,0,0,0-1.2-.461,1.48,1.48,0,0,0-1.233.561,4.109,4.109,0,0,0-.726,2.673,4.948,4.948,0,0,0,.561,2.618,1.615,1.615,0,0,0,1.409.716A1.6,1.6,0,0,0,145.059,55.459Z" fill="#30353a"/><path d="M149.315,51.951a6.877,6.877,0,0,0,1.034.067h1.705a6.955,6.955,0,0,0,1.046-.067v1.463a6.062,6.062,0,0,0-1.046-.065h-1.705a6.06,6.06,0,0,0-1.034.065Z" fill="#30353a"/><path d="M156.575,57.021a9.117,9.117,0,0,0,.088-1.429V49.529h-.528A9.784,9.784,0,0,0,155,49.6V48.2a6.1,6.1,0,0,0,1.1.067h1.012a7.978,7.978,0,0,0,1.122-.056,16.575,16.575,0,0,0-.088,1.815v5.568a9.207,9.207,0,0,0,.088,1.429Z" fill="#30353a"/><path d="M162.063,54.9a1.833,1.833,0,0,0,.341.606,1.974,1.974,0,0,0,2.509,0,3.615,3.615,0,0,0,.858-2.619,2.161,2.161,0,0,1-.583.627,2.986,2.986,0,0,1-1.782.507,2.748,2.748,0,0,1-2.993-2.894,2.9,2.9,0,0,1,1.4-2.586,3.6,3.6,0,0,1,1.924-.483,3.119,3.119,0,0,1,3.026,2.167,7.043,7.043,0,0,1,.319,2.277,5.546,5.546,0,0,1-1.166,3.817,3.049,3.049,0,0,1-2.344.836,3.179,3.179,0,0,1-2.123-.637,3.112,3.112,0,0,1-.9-1.222Zm3.455-3.861a1.821,1.821,0,0,0-3.641.032,1.643,1.643,0,0,0,1.749,1.761A1.8,1.8,0,0,0,165.518,51.037Z" fill="#30353a"/><path d="M170.489,49.707v1.606h-1.606V49.707Zm0,4.708v1.606h-1.606V54.415Z" fill="#30353a"/><path d="M173.262,56.307a3.08,3.08,0,0,1-.727-1.112,7.358,7.358,0,0,1-.429-2.53,6.484,6.484,0,0,1,.671-3.048,3.13,3.13,0,0,1,2.806-1.529,3.2,3.2,0,0,1,2.321.891,3.085,3.085,0,0,1,.726,1.112,7.394,7.394,0,0,1,.43,2.552,5.775,5.775,0,0,1-.815,3.256,3.12,3.12,0,0,1-2.674,1.3A3.168,3.168,0,0,1,173.262,56.307Zm3.509-.848a4.239,4.239,0,0,0,.77-2.827,4.267,4.267,0,0,0-.77-2.817,1.6,1.6,0,0,0-1.2-.461,1.475,1.475,0,0,0-1.231.561,4.1,4.1,0,0,0-.727,2.673,4.937,4.937,0,0,0,.562,2.618,1.748,1.748,0,0,0,2.6.253Z" fill="#30353a"/><path d="M181.589,56.307a3.08,3.08,0,0,1-.727-1.112,7.357,7.357,0,0,1-.428-2.53,6.485,6.485,0,0,1,.67-3.048,3.13,3.13,0,0,1,2.806-1.529,3.2,3.2,0,0,1,2.321.891,3.072,3.072,0,0,1,.726,1.112,7.393,7.393,0,0,1,.429,2.552,5.775,5.775,0,0,1-.814,3.256,3.12,3.12,0,0,1-2.674,1.3A3.168,3.168,0,0,1,181.589,56.307Zm3.509-.848a4.239,4.239,0,0,0,.77-2.827,4.267,4.267,0,0,0-.77-2.817,1.594,1.594,0,0,0-1.2-.461,1.475,1.475,0,0,0-1.231.561,4.1,4.1,0,0,0-.727,2.673,4.937,4.937,0,0,0,.562,2.618,1.612,1.612,0,0,0,1.408.716A1.6,1.6,0,0,0,185.1,55.459Z" fill="#30353a"/><path d="M197.5,48.054l-3.608,9.465h-1.23l3.618-9.465Z" fill="#30353a"/><path d="M206.672,48.99A9.587,9.587,0,0,0,206.6,47.7h1.429a9.256,9.256,0,0,0-.077,1.287v1.991h2.19a12.428,12.428,0,0,0,1.419-.065V52.2a13.086,13.086,0,0,0-1.419-.066h-2.19v3.982h2.883a14.561,14.561,0,0,0,1.54-.065v1.308a12.568,12.568,0,0,0-1.54-.076h-6.821a13.041,13.041,0,0,0-1.573.076V56.054a14.978,14.978,0,0,0,1.573.065h2.663V52.137H204.68a13.162,13.162,0,0,0-1.43.066V50.916a12.641,12.641,0,0,0,1.43.065h1.992Z" fill="#30353a"/><path d="M214.657,49.3c0-.43-.022-.815-.055-1.178a9.688,9.688,0,0,0,1.221.056h5.324a8.833,8.833,0,0,0,1.189-.056,9.939,9.939,0,0,0-.055,1.122v7.108a11.144,11.144,0,0,0,.066,1.331h-1.331v-.661H215.9v.661h-1.309a11.55,11.55,0,0,0,.066-1.331Zm1.243,2.6h5.116V49.343H215.9Zm0,3.971h5.116V53.05H215.9Z" fill="#30353a"/><path d="M227.153,56.57a8.372,8.372,0,0,0,.066,1.189h-1.287A7.108,7.108,0,0,0,226,56.57V53.9a10.1,10.1,0,0,1-1.266,1.056,4.644,4.644,0,0,0-.5-1.21,7.035,7.035,0,0,0,1.715-1.441,6.828,6.828,0,0,0,1.244-1.8h-1.639a7.185,7.185,0,0,0-.924.044V49.387a6.017,6.017,0,0,0,.857.044H226v-.98a5.833,5.833,0,0,0-.066-.857h1.287a6.526,6.526,0,0,0-.055.869v.968h.308a4.374,4.374,0,0,0,.66-.034l.551.639a9.5,9.5,0,0,0-.5,1.012,9.962,9.962,0,0,1-.782,1.254,6.307,6.307,0,0,0,1.518,1.111,4.758,4.758,0,0,0-.55,1.078,6.6,6.6,0,0,1-1.221-1.034Zm2.487-4.026a7.566,7.566,0,0,0-.892.044,7.648,7.648,0,0,0,.044-.924V49a9.217,9.217,0,0,0-.044-.946,8.924,8.924,0,0,0,1.034.044h3.257a8.535,8.535,0,0,0,1-.044A8.159,8.159,0,0,0,234,49v2.64a8.037,8.037,0,0,0,.044.946,7.383,7.383,0,0,0-.9-.044h-.429v3.763c0,.175.065.209.4.209s.452-.023.518-.1c.088-.11.1-.265.109-1.838a2.4,2.4,0,0,0,1.046.462c-.077,1.838-.143,2.168-.495,2.377a2.958,2.958,0,0,1-1.408.2c-.671,0-.925-.055-1.122-.254a.76.76,0,0,1-.177-.615v-4.2H231a7.435,7.435,0,0,1-.539,2.806,4.565,4.565,0,0,1-1.057,1.606,4.753,4.753,0,0,1-1.177.836,4.932,4.932,0,0,0-.825-.99,3.51,3.51,0,0,0,1.474-1.045,4.963,4.963,0,0,0,1-3.213Zm.307-1.067h2.905V49.2h-2.905Z" fill="#30353a"/><path d="M237.746,54.9a1.833,1.833,0,0,0,.341.606,1.974,1.974,0,0,0,2.509,0,3.615,3.615,0,0,0,.857-2.619,2.148,2.148,0,0,1-.583.627,2.984,2.984,0,0,1-1.782.507,2.748,2.748,0,0,1-2.992-2.894,2.9,2.9,0,0,1,1.4-2.586,3.6,3.6,0,0,1,1.925-.483,3.119,3.119,0,0,1,3.025,2.167,7.04,7.04,0,0,1,.32,2.277,5.551,5.551,0,0,1-1.166,3.817,3.049,3.049,0,0,1-2.344.836,3.177,3.177,0,0,1-2.123-.637,3.112,3.112,0,0,1-.9-1.222Zm3.454-3.861a1.821,1.821,0,0,0-3.641.032,1.643,1.643,0,0,0,1.75,1.761A1.8,1.8,0,0,0,241.2,51.037Z" fill="#30353a"/><path d="M246.172,49.707v1.606h-1.607V49.707Zm0,4.708v1.606h-1.607V54.415Z" fill="#30353a"/><path d="M248.944,56.307a3.064,3.064,0,0,1-.726-1.112,7.358,7.358,0,0,1-.429-2.53,6.484,6.484,0,0,1,.671-3.048,3.13,3.13,0,0,1,2.806-1.529,3.2,3.2,0,0,1,2.321.891,3.085,3.085,0,0,1,.726,1.112,7.393,7.393,0,0,1,.428,2.552,5.784,5.784,0,0,1-.813,3.256,3.122,3.122,0,0,1-2.674,1.3A3.168,3.168,0,0,1,248.944,56.307Zm3.509-.848a4.238,4.238,0,0,0,.771-2.827,4.267,4.267,0,0,0-.771-2.817,1.593,1.593,0,0,0-1.2-.461,1.478,1.478,0,0,0-1.232.561,4.1,4.1,0,0,0-.726,2.673,4.948,4.948,0,0,0,.561,2.618,1.613,1.613,0,0,0,1.409.716A1.593,1.593,0,0,0,252.453,55.459Z" fill="#30353a"/><path d="M257.271,56.307a3.067,3.067,0,0,1-.727-1.112,7.358,7.358,0,0,1-.429-2.53,6.484,6.484,0,0,1,.671-3.048,3.13,3.13,0,0,1,2.806-1.529,3.2,3.2,0,0,1,2.321.891,3.085,3.085,0,0,1,.726,1.112,7.393,7.393,0,0,1,.428,2.552,5.775,5.775,0,0,1-.813,3.256,3.12,3.12,0,0,1-2.674,1.3A3.168,3.168,0,0,1,257.271,56.307Zm3.508-.848a4.238,4.238,0,0,0,.771-2.827,4.267,4.267,0,0,0-.771-2.817,1.591,1.591,0,0,0-1.2-.461,1.475,1.475,0,0,0-1.231.561,4.1,4.1,0,0,0-.727,2.673,4.937,4.937,0,0,0,.562,2.618,1.61,1.61,0,0,0,1.408.716A1.593,1.593,0,0,0,260.779,55.459Z" fill="#30353a"/><path d="M265.036,51.951a6.877,6.877,0,0,0,1.034.067h1.7a6.913,6.913,0,0,0,1.045-.067v1.463a6.03,6.03,0,0,0-1.045-.065h-1.7a6.067,6.067,0,0,0-1.034.065Z" fill="#30353a"/><path d="M272.3,57.021a9.24,9.24,0,0,0,.088-1.429V49.529h-.529a9.767,9.767,0,0,0-1.132.067V48.2a6.087,6.087,0,0,0,1.1.067h1.013a7.987,7.987,0,0,0,1.122-.056,16.575,16.575,0,0,0-.088,1.815v5.568a9.207,9.207,0,0,0,.088,1.429Z" fill="#30353a"/><path d="M282.747,49.485a7.45,7.45,0,0,0-1.144,1.584,14.182,14.182,0,0,0-2.046,5.952h-1.739a16.455,16.455,0,0,1,1.331-4.257,18.179,18.179,0,0,1,1.925-3.2h-3.4a10.529,10.529,0,0,0-1.442.077V48.188a12.376,12.376,0,0,0,1.508.077h3.5a12.116,12.116,0,0,0,1.508-.056Z" fill="#30353a"/><path d="M286.211,49.707v1.606H284.6V49.707Zm0,4.708v1.606H284.6V54.415Z" fill="#30353a"/><path d="M289.412,54.635a1.426,1.426,0,0,0,.517.9,2.079,2.079,0,0,0,1.332.43c1.089,0,1.782-.562,1.782-1.431a1.284,1.284,0,0,0-.616-1.155,2.868,2.868,0,0,0-1.266-.264,9.393,9.393,0,0,0-1.177.055V51.807a7.541,7.541,0,0,0,1.067.055c1.1,0,1.75-.507,1.75-1.353,0-.759-.518-1.189-1.452-1.189a1.837,1.837,0,0,0-1.2.341,1.616,1.616,0,0,0-.461.848l-1.574-.264a2.733,2.733,0,0,1,1.045-1.573,3.574,3.574,0,0,1,2.156-.606c1.837,0,3.026.924,3.026,2.355a2.006,2.006,0,0,1-.759,1.617,2.715,2.715,0,0,1-1.067.429,2.316,2.316,0,0,1,1.573.737,2.114,2.114,0,0,1,.528,1.519,2.331,2.331,0,0,1-.66,1.605,3.8,3.8,0,0,1-2.707.892,3.436,3.436,0,0,1-2.794-1.045,2.916,2.916,0,0,1-.616-1.233Z" fill="#30353a"/><path d="M297.311,56.307a3.067,3.067,0,0,1-.727-1.112,7.358,7.358,0,0,1-.429-2.53,6.484,6.484,0,0,1,.671-3.048,3.13,3.13,0,0,1,2.806-1.529,3.2,3.2,0,0,1,2.321.891,3.085,3.085,0,0,1,.726,1.112,7.393,7.393,0,0,1,.429,2.552,5.775,5.775,0,0,1-.814,3.256,3.12,3.12,0,0,1-2.674,1.3A3.168,3.168,0,0,1,297.311,56.307Zm3.508-.848a4.238,4.238,0,0,0,.771-2.827,4.267,4.267,0,0,0-.771-2.817,1.591,1.591,0,0,0-1.2-.461,1.475,1.475,0,0,0-1.231.561,4.1,4.1,0,0,0-.727,2.673,4.937,4.937,0,0,0,.562,2.618,1.61,1.61,0,0,0,1.408.716A1.593,1.593,0,0,0,300.819,55.459Z" fill="#30353a"/><path d="M107.349,5.38a1.685,1.685,0,0,0-.12.74,30.2,30.2,0,0,1-.27,3.66c-.28,1.9-.67,2.35-2,2.35a8.155,8.155,0,0,1-1.36-.12,3.361,3.361,0,0,0-.26-1.4,6.035,6.035,0,0,0,1.46.25c.47,0,.63-.24.81-1.2a24.962,24.962,0,0,0,.24-3.52h-2.56a8.314,8.314,0,0,1-.88,3.15,8.19,8.19,0,0,1-3,3,4.392,4.392,0,0,0-1-1.16,6.219,6.219,0,0,0,2.91-2.73,5.536,5.536,0,0,0,.56-1.91V6.15h-1.77a6.96,6.96,0,0,0-1.19.06V4.86a5.94,5.94,0,0,0,1.21.14h1.91V3.29a2.375,2.375,0,0,0,0-.43h1.47v.55a6.439,6.439,0,0,0,0,.81v.69h2.44a2.174,2.174,0,0,0,.87-.1Z" fill="#30353a"/><path d="M117.089,12.24A20.832,20.832,0,0,0,113.719,9a13.265,13.265,0,0,1-4.2,3.18,4.122,4.122,0,0,0-.89-1.22,9.021,9.021,0,0,0,2.2-1.21,10.651,10.651,0,0,0,3.7-4.48l.12-.29-3.61.02a7.772,7.772,0,0,0-1.2.09V3.68a5.154,5.154,0,0,0,1,.06h4.07a2.343,2.343,0,0,0,1-.12l.73.75a2.007,2.007,0,0,0-.36.59,14.435,14.435,0,0,1-1.71,3,17.2,17.2,0,0,1,2,1.59c.28.24.28.24,1.61,1.53Z" fill="#30353a"/><path d="M127.749,4.72a2.113,2.113,0,0,0-.34.74,18.477,18.477,0,0,1-1.41,3,10.653,10.653,0,0,1-5,4.2,3.581,3.581,0,0,0-.92-1.13,10.767,10.767,0,0,0,2.15-1.1,7.974,7.974,0,0,0,1.81-1.51,12.513,12.513,0,0,0-2.25-1.57l.83-1a14.472,14.472,0,0,1,2.22,1.47,10.712,10.712,0,0,0,1.2-2.57h-3.42a11.549,11.549,0,0,1-2.58,3,3.43,3.43,0,0,0-1.1-.88,9.356,9.356,0,0,0,2.76-3.14,6.582,6.582,0,0,0,.64-1.53l1.43.32a6.567,6.567,0,0,0-.33.62c-.13.3-.21.43-.26.53h2.86a2.888,2.888,0,0,0,1-.17Z" fill="#30353a"/><path d="M131.169,6.6a17.623,17.623,0,0,1,1.37,1.22,7.04,7.04,0,0,0,.68.68,13.805,13.805,0,0,0,1.44-1.38,14.6,14.6,0,0,0,1.38-1.8l.07-.09a.2.2,0,0,1,0-.06h-5.77a10.061,10.061,0,0,0-1.41.06V3.85a7.6,7.6,0,0,0,1.43.08h6.12a3.1,3.1,0,0,0,.91-.09l.77.87a3.168,3.168,0,0,0-.49.65,17.15,17.15,0,0,1-3.55,4.17c.46.52.88,1.05,1.45,1.83l-1.15.93a17.877,17.877,0,0,0-2.13-2.77,16.651,16.651,0,0,0-2.2-2.13Z" fill="#30353a"/><path d="M138.979,6.9a11.509,11.509,0,0,0,1.78.08h5.87a11.381,11.381,0,0,0,1.78-.08V8.43a10.924,10.924,0,0,0-1.79-.06h-5.84a11.042,11.042,0,0,0-1.8.06Z" fill="#30353a"/><path d="M159.039,5.6a3.326,3.326,0,0,0-.31.54,8.111,8.111,0,0,1-2.69,3.21,3.818,3.818,0,0,0-1.1-.89,5.59,5.59,0,0,0,1.81-1.55c.15-.22.22-.32.42-.65l-.42.07c-1.11.13-2.24.27-3.39.44V9.24a3.973,3.973,0,0,0,0,.95c.07.43.43.55,1.55.55a12.328,12.328,0,0,0,3.37-.43l.07,1.48a4.85,4.85,0,0,0-.67.05,24.773,24.773,0,0,1-2.64.16,7.725,7.725,0,0,1-2-.18,1.43,1.43,0,0,1-.94-1,4.155,4.155,0,0,1-.06-1.38V6.92l-1,.13a6.23,6.23,0,0,0-1.22.21l-.14-1.36h.26a4.8,4.8,0,0,0,1-.08l1.1-.13V4.18a5,5,0,0,0-.07-1h1.52a4.855,4.855,0,0,0-.07,1V5.54l4-.48a2.189,2.189,0,0,0,.85-.19Z" fill="#30353a"/><path d="M160.3,10.56a10.319,10.319,0,0,0,3.26-.81,7.4,7.4,0,0,0,3.27-2.7,9.274,9.274,0,0,0,1.12-2.2,4.786,4.786,0,0,0,1.16,1.08,9.654,9.654,0,0,1-3.48,4.31,11.846,11.846,0,0,1-4.2,1.65,3.726,3.726,0,0,0-.72.19Zm.94-6.83a15.5,15.5,0,0,1,2.8,2.12l-.94,1.2a11.487,11.487,0,0,0-2.81-2.23Z" fill="#30353a"/><path d="M178.789,4.72a2.113,2.113,0,0,0-.34.74,17.684,17.684,0,0,1-1.41,3,10.653,10.653,0,0,1-5,4.2,3.581,3.581,0,0,0-.92-1.13,10.767,10.767,0,0,0,2.15-1.1,7.99,7.99,0,0,0,1.77-1.51,12.513,12.513,0,0,0-2.25-1.57l.83-1a14.472,14.472,0,0,1,2.22,1.47,10.7,10.7,0,0,0,1.23-2.59h-3.42a11.549,11.549,0,0,1-2.58,3,3.43,3.43,0,0,0-1.1-.88,9.356,9.356,0,0,0,2.76-3.14,6.582,6.582,0,0,0,.64-1.53L174.8,3a6.567,6.567,0,0,0-.33.62c-.13.3-.21.43-.26.53h2.86a2.877,2.877,0,0,0,.97-.15Z" fill="#30353a"/><path d="M180.229,6.9a11.532,11.532,0,0,0,1.81.1h5.87a11.381,11.381,0,0,0,1.78-.08V8.43a10.924,10.924,0,0,0-1.79-.06h-5.86a11.042,11.042,0,0,0-1.8.06Z" fill="#30353a"/><path d="M190.809,8.19a13.92,13.92,0,0,0,2.4-2.7,3.418,3.418,0,0,1,.69-.69,1.49,1.49,0,0,1,.88-.33,1.568,1.568,0,0,1,1,.41,9.061,9.061,0,0,1,.73.8A35.813,35.813,0,0,0,199.789,9a7,7,0,0,0,1.25,1l-.67,1.56a1.938,1.938,0,0,0-.32-.32c-.57-.51-1.44-1.33-2.24-2.13a26.021,26.021,0,0,1-2-2.24c-.68-.78-.75-.83-1-.83s-.28.1-.66.59a30.108,30.108,0,0,1-2.16,2.66,1.809,1.809,0,0,0-.23.3Z" fill="#30353a"/><path d="M206.2,9.32c-.62,1.42-1.33,2.07-2.23,2.07-1.25,0-2.16-1.28-2.16-3.05a4.726,4.726,0,0,1,1.23-3.2,5,5,0,0,1,3.79-1.54c2.64,0,4.36,1.6,4.36,4.08a4.231,4.231,0,0,1-2.68,4.1,7.077,7.077,0,0,1-1.72.46,3.434,3.434,0,0,0-.68-1.28,5.838,5.838,0,0,0,2.19-.61,3.071,3.071,0,0,0,1.53-2.75,2.729,2.729,0,0,0-1.35-2.44,2.338,2.338,0,0,0-1.11-.33A16.009,16.009,0,0,1,206.2,9.32Zm-1.61-3.94a3.672,3.672,0,0,0-1.5,3c0,.9.39,1.62.87,1.62s.74-.46,1.13-1.41a14.807,14.807,0,0,0,.95-3.75A2.8,2.8,0,0,0,204.589,5.38Z" fill="#30353a"/><path d="M216.129,10.68a3.538,3.538,0,0,1-.09.94,1,1,0,0,1-1,.64,3.375,3.375,0,0,1-2.08-.79,1.613,1.613,0,0,1-.61-1.24,2.341,2.341,0,0,1,.95-1.63,5.906,5.906,0,0,1,1.6-.93V6h-1.92a1.105,1.105,0,0,0-.23,0V4.76a6.308,6.308,0,0,0,1.33.1h.82V4.11a8.29,8.29,0,0,0-.06-1.26h1.37a7.407,7.407,0,0,0-.06,1.2v.7a12.053,12.053,0,0,0,2.12-.42V5.57l-1.16.19c-.37.07-.59.1-1,.15V7.34a7.563,7.563,0,0,1,2.25-.34c1.84,0,3.15,1.12,3.15,2.68a2.451,2.451,0,0,1-2.389,2.51q-.055,0-.111,0a1.77,1.77,0,0,1-1.8-1.22,3.547,3.547,0,0,1-.17-1.38,4.568,4.568,0,0,0,1.22-.48,4.27,4.27,0,0,0,0,.48,2.122,2.122,0,0,0,.15,1,.771.771,0,0,0,.69.38,1.129,1.129,0,0,0,1.114-1.145.794.794,0,0,0,0-.085c0-.94-.76-1.56-1.94-1.56a6.8,6.8,0,0,0-2.11.37Zm-1.25-1.77c-.82.44-1.31.93-1.31,1.32,0,.19.11.35.37.51a1.344,1.344,0,0,0,.7.24c.19,0,.24-.1.24-.46Zm6.1-2.22a9.53,9.53,0,0,0-2.2-2.38l1-.69a9.413,9.413,0,0,1,2.26,2.25Z" fill="#30353a"/><path d="M224.459,11.39a9.985,9.985,0,0,0,.07,1.35h-1.29a8.713,8.713,0,0,0,.07-1.36V4.17a10.269,10.269,0,0,0-.05-1.24h3.07a10.142,10.142,0,0,0,1.13,0V5.78a7.944,7.944,0,0,0,0,1c-.333-.016-.667-.016-1,0h-2Zm0-6.95h1.88V3.87h-1.88Zm0,1.43h1.88V5.29h-1.88Zm5.58,4.36v.75h-3.23v.73h-1.17a8.17,8.17,0,0,0,.06-1.06V8.26a5.819,5.819,0,0,0,0-.77h4.38v.76Zm-3.2-.29h2.09V8.5h-2.09Zm5.68,1.45c0,.6-.1.89-.39,1.06a2.144,2.144,0,0,1-1.15.18h-1a3.577,3.577,0,0,0-.31-1.17c.47.05,1,.1,1.36.1s.36,0,.36-.29V6.73h-2.12a9.266,9.266,0,0,0-1,0V3a10.461,10.461,0,0,0,1.12,0h3.22a10.747,10.747,0,0,0-.05,1.23Zm-3.18-6.95h2V3.87h-2Zm0,1.43h2V5.29h-2Z" fill="#30353a"/><path d="M235.779,3.8a13.906,13.906,0,0,0-.08,1.67,21.058,21.058,0,0,0,.2,3c.19,1.14.54,1.84.89,1.84.17,0,.32-.16.46-.47a8.147,8.147,0,0,0,.58-2,5.389,5.389,0,0,0,1.1,1c-.57,2.15-1.21,3-2.15,3-.73,0-1.33-.54-1.77-1.6s-.65-2.69-.69-5.74a5.45,5.45,0,0,0,0-.7Zm5.21.49a11,11,0,0,1,2.47,5.92l-1.36.52a11.094,11.094,0,0,0-.71-3.18,9.49,9.49,0,0,0-1.56-2.71Z" fill="#30353a"/><path d="M246.539,6.28a10.918,10.918,0,0,1-1.76.93,4.253,4.253,0,0,0-.64-1.13,10.761,10.761,0,0,0,2.81-1.58,8,8,0,0,0,1.73-1.84h1.3a7.222,7.222,0,0,0,1.85,1.86A10.5,10.5,0,0,0,254.639,6a5.723,5.723,0,0,0-.6,1.24,10.5,10.5,0,0,1-1.79-1V7a8.779,8.779,0,0,0-1,0h-3.76a9.407,9.407,0,0,0-.95,0Zm-.89,6.44a9.337,9.337,0,0,0,.07-1.17V9a10.446,10.446,0,0,0-.06-1.09,7.528,7.528,0,0,0,.95,0h5.5a7.944,7.944,0,0,0,1,0,6.736,6.736,0,0,0-.07,1.09v2.57a6.344,6.344,0,0,0,.07,1.16H251.8v-.56h-4.81v.56Zm1.31-1.64h4.81V9h-4.81Zm4.28-5.23h.37a9.837,9.837,0,0,1-2.26-2.14,7.722,7.722,0,0,1-2.16,2.14h4.05Z" fill="#30353a"/><path d="M255.249,9.27a21.7,21.7,0,0,0,2-1.76c0-.67,0-.68.05-1.58a13.96,13.96,0,0,0-1.67.16l-.08-1.24h.36l1.42-.07V3.4a2.971,2.971,0,0,0-.05-.48h1.42a4.155,4.155,0,0,0-.11,1v.72a.34.34,0,0,0,.15-.06l.42.45a5.535,5.535,0,0,0-.63.72V6.5h0a1.459,1.459,0,0,1,.26-.21,5.09,5.09,0,0,1,3.17-1.21,3.07,3.07,0,0,1,2.15.9,3.207,3.207,0,0,1,.85,2.26,3.39,3.39,0,0,1-1.75,3.12,4.482,4.482,0,0,1-2,.42,5.5,5.5,0,0,1-1.64-.25,3.994,3.994,0,0,0-.21-1.43,5,5,0,0,0,2,.41A2.16,2.16,0,0,0,263.6,8.435a2,2,0,0,0,0-.205,1.759,1.759,0,0,0-1.88-1.91A5.2,5.2,0,0,0,258.509,8V9.18a28.118,28.118,0,0,0,.09,3.28h-1.43a12.029,12.029,0,0,0,.06-1.76v-1a6.406,6.406,0,0,1,0-.65h0a3.22,3.22,0,0,1-.48.51,6.5,6.5,0,0,0-.85.95Z" fill="#30353a"/><path d="M274.869,11.91l-.5.06c-.8.09-2.25.16-3,.16-2.06,0-3-.39-3.28-1.45a11.184,11.184,0,0,1-.19-3V6.61a14.744,14.744,0,0,0-2,.2l-.09-1.29h.32l1.8-.1V5.08a10.349,10.349,0,0,0-.08-1.87h1.47a14.85,14.85,0,0,0-.1,2.15l3.18-.16a13.037,13.037,0,0,0-.06-2.2h1.37a5.523,5.523,0,0,0-.05.76V5.17a17.419,17.419,0,0,0,2.13-.1V6.38a4.277,4.277,0,0,0-.62,0h-1.53a6.853,6.853,0,0,1-.29,2.33,1.34,1.34,0,0,1-1.34.83,3.512,3.512,0,0,1-1.57-.38V8.72a5.32,5.32,0,0,0-.08-.9,3.415,3.415,0,0,0,1.44.54c.29,0,.41-.14.47-.57a8.735,8.735,0,0,0,.1-1.38c-1.67.07-1.67.07-3.2.16V7.73a18.727,18.727,0,0,0,.06,2c.08.93.56,1.16,2.35,1.16a8.881,8.881,0,0,0,3.18-.42Z" fill="#30353a"/><path d="M99.67,41.24a7.292,7.292,0,0,1-2-5.41V24.74a7.228,7.228,0,0,1,2-5.4,8.32,8.32,0,0,1,10.87,0,7.237,7.237,0,0,1,2,5.4V35.83a7.69,7.69,0,0,1-12.91,5.41Zm7.83-2.57a3.661,3.661,0,0,0,.9-2.59V24.56a3.713,3.713,0,0,0-.9-2.63,3.368,3.368,0,0,0-4.79,0,3.709,3.709,0,0,0-.9,2.63V36.08a3.661,3.661,0,0,0,.9,2.59,3.368,3.368,0,0,0,4.79,0Z" fill="#192"/><path d="M120.21,17.68h3.45a.4.4,0,0,1,.31.13.42.42,0,0,1,.13.3V42.45a.461.461,0,0,1-.13.31.431.431,0,0,1-.31.12h-3.31a.41.41,0,0,1-.3-.12.418.418,0,0,1-.13-.31V22a.211.211,0,0,0-.07-.15s-.1-.06-.15,0l-3.27.9h-.15q-.36,0-.36-.39l-.1-2.42a.521.521,0,0,1,.28-.5l3.57-1.69A1.083,1.083,0,0,1,120.21,17.68Z" fill="#192"/><path d="M133.78,39.21a.244.244,0,0,0,.14.07h9a.418.418,0,0,1,.31.13.41.41,0,0,1,.12.3v2.74a.41.41,0,0,1-.389.43H129a.431.431,0,0,1-.31-.12.461.461,0,0,1-.13-.31V39.68a1,1,0,0,1,.18-.54q3.93-4.76,7.24-9.15,2.7-3.7,2.7-5.76a3.291,3.291,0,0,0-.83-2.35,3.013,3.013,0,0,0-5.18,2.3v1.19a.418.418,0,0,1-.13.31.41.41,0,0,1-.3.12h-3.35a.41.41,0,0,1-.43-.389.281.281,0,0,1,0-.041V23.8a6.26,6.26,0,0,1,2.16-4.64,7.44,7.44,0,0,1,5.11-1.77,7.871,7.871,0,0,1,3.78.88,6.251,6.251,0,0,1,2.5,2.44,6.874,6.874,0,0,1,.88,3.49,8.9,8.9,0,0,1-.7,3.38A18.012,18.012,0,0,1,140,31.29q-1.331,1.88-4.43,5.62c-.41.48-1,1.2-1.76,2.15A.13.13,0,0,0,133.78,39.21Z" fill="#192"/><path d="M149.24,41.24a7.32,7.32,0,0,1-2-5.41V24.74a7.268,7.268,0,0,1,2-5.4,8.32,8.32,0,0,1,10.87,0,7.237,7.237,0,0,1,2,5.4V35.83a7.69,7.69,0,0,1-12.91,5.41Zm7.83-2.57a3.661,3.661,0,0,0,.9-2.59V24.56a3.709,3.709,0,0,0-.9-2.63,3.44,3.44,0,0,0-4.79,0,3.713,3.713,0,0,0-.9,2.63V36.08a3.661,3.661,0,0,0,.9,2.59A3.44,3.44,0,0,0,157.07,38.67Z" fill="#192"/><path d="M166,33.72a.4.4,0,0,1-.13-.31V30.68a.418.418,0,0,1,.13-.31.41.41,0,0,1,.3-.12h10.12a.41.41,0,0,1,.3.12.418.418,0,0,1,.13.31v2.73a.4.4,0,0,1-.13.31.42.42,0,0,1-.3.13H166.25A.418.418,0,0,1,166,33.72Z" fill="#192"/><path d="M194.8,35a11.493,11.493,0,0,1-.47,3.27,6,6,0,0,1-2.32,3.6,7.348,7.348,0,0,1-4.41,1.26A7.238,7.238,0,0,1,183.42,42a6,6,0,0,1-2.37-3.31l-.07-.22a8.044,8.044,0,0,1-.58-3.31V23.82a5.929,5.929,0,0,1,2-4.66,7.423,7.423,0,0,1,5.13-1.75,7,7,0,0,1,4.93,1.75,5.919,5.919,0,0,1,1.9,4.59v.83a.41.41,0,0,1-.12.3.418.418,0,0,1-.31.13h-3.31a.44.44,0,0,1-.43-.43v-.47a3.127,3.127,0,0,0-.76-2.18,2.457,2.457,0,0,0-1.9-.85,2.758,2.758,0,0,0-2.07.85,3.143,3.143,0,0,0-.81,2.25V28a.15.15,0,0,0,.07.15.12.12,0,0,0,.14,0,4.758,4.758,0,0,1,3.35-1.26A6.085,6.085,0,0,1,191.92,28a6.372,6.372,0,0,1,2.2,3.22A9.912,9.912,0,0,1,194.8,35Zm-4.21-.11a7.942,7.942,0,0,0-.43-2.66,2.73,2.73,0,0,0-5.22,0,8.479,8.479,0,0,0-.36,2.7,8.9,8.9,0,0,0,.28,2.41,2.76,2.76,0,0,0,5.4-.07A8.742,8.742,0,0,0,190.59,34.89Z" fill="#192"/><path d="M200.61,41.24a7.32,7.32,0,0,1-2-5.41V24.74a7.268,7.268,0,0,1,2-5.4,8.341,8.341,0,0,1,10.88,0,7.268,7.268,0,0,1,2,5.4V35.83a7.69,7.69,0,0,1-12.91,5.41Zm7.83-2.57a3.661,3.661,0,0,0,.9-2.59V24.56a3.709,3.709,0,0,0-.9-2.63A3.11,3.11,0,0,0,206,21a3.053,3.053,0,0,0-2.37,1,3.713,3.713,0,0,0-.9,2.63V36.08a3.661,3.661,0,0,0,.9,2.59,3.053,3.053,0,0,0,2.37,1A3.11,3.11,0,0,0,208.44,38.67Z" fill="#192"/><path d="M232.13,35a12.106,12.106,0,0,1-.36,3.2,6.389,6.389,0,0,1-2.43,3.66,7.448,7.448,0,0,1-4.45,1.27,7.371,7.371,0,0,1-4.48-1.33A6.289,6.289,0,0,1,218,38a10.043,10.043,0,0,1-.25-1.43v-.08c0-.24.14-.36.43-.36h3.35c.24,0,.38.14.43.4l.07.43.18.51a2.931,2.931,0,0,0,1,1.54,2.9,2.9,0,0,0,3.49-.09,3.2,3.2,0,0,0,1-1.78,7.37,7.37,0,0,0,.25-2.09,9.441,9.441,0,0,0-.25-2.26,2.716,2.716,0,0,0-1-1.62,2.924,2.924,0,0,0-1.8-.54,3.26,3.26,0,0,0-1.71.45,2.677,2.677,0,0,0-1.09,1.31.46.46,0,0,1-.47.36h-3.46a.44.44,0,0,1-.43-.43V18.11a.44.44,0,0,1,.43-.43h12.89a.418.418,0,0,1,.31.13.41.41,0,0,1,.12.3v2.74a.41.41,0,0,1-.389.43H222.06a.16.16,0,0,0-.18.137.155.155,0,0,0,0,.043v6.7c0,.07,0,.11.07.12a.128.128,0,0,0,.14-.05,5.155,5.155,0,0,1,1.69-.94,6.533,6.533,0,0,1,2-.32,6.094,6.094,0,0,1,3.6,1,5.648,5.648,0,0,1,2.12,2.93A12.493,12.493,0,0,1,232.13,35Z" fill="#192"/><path d="M235.42,33.72a.431.431,0,0,1-.12-.31V30.68a.41.41,0,0,1,.389-.43.281.281,0,0,1,.041,0h10.12a.41.41,0,0,1,.3.12.418.418,0,0,1,.13.31v2.73a.4.4,0,0,1-.13.31.42.42,0,0,1-.3.13H235.73A.461.461,0,0,1,235.42,33.72Z" fill="#192"/><path d="M264.17,35.65a8.237,8.237,0,0,1-.72,3.52,6.474,6.474,0,0,1-2.5,2.94,7.313,7.313,0,0,1-4,1.06,7.554,7.554,0,0,1-4-1,6.468,6.468,0,0,1-2.6-3,9.721,9.721,0,0,1,.08-7.34,4.74,4.74,0,0,1,1.83-2.09c.12-.07.13-.15,0-.25a5.167,5.167,0,0,1-1.66-1.87,7,7,0,0,1-.79-3.42,7,7,0,0,1,1.12-4,5.793,5.793,0,0,1,2.5-2.2,8.427,8.427,0,0,1,7,0,6.006,6.006,0,0,1,2.43,2.16,7.367,7.367,0,0,1,1.15,4,6.782,6.782,0,0,1-.87,3.45,5.459,5.459,0,0,1-1.65,1.8c-.1.1-.1.18,0,.26a4.748,4.748,0,0,1,1.83,2.05A8.482,8.482,0,0,1,264.17,35.65ZM260,35.32a6.235,6.235,0,0,0-.43-2.52,2.69,2.69,0,0,0-2.59-1.73,2.649,2.649,0,0,0-1.57.47,2.766,2.766,0,0,0-1,1.3,6.257,6.257,0,0,0-.43,2.48,5.823,5.823,0,0,0,.43,2.38,2.808,2.808,0,0,0,1,1.38,2.738,2.738,0,0,0,3.13,0,3,3,0,0,0,1-1.38A5.82,5.82,0,0,0,260,35.32Zm-6-10.87a4.311,4.311,0,0,0,.51,2.16,2.587,2.587,0,0,0,1,1.1,2.793,2.793,0,0,0,1.46.38,2.651,2.651,0,0,0,2.52-1.55,4.87,4.87,0,0,0,.43-2.13,4.2,4.2,0,0,0-.43-2,2.694,2.694,0,0,0-1-1.15,2.818,2.818,0,0,0-1.57-.43,2.771,2.771,0,0,0-1.48.41,2.74,2.74,0,0,0-1,1.21A4.367,4.367,0,0,0,254,24.45Z" fill="#192"/><path d="M270.27,41.24a7.32,7.32,0,0,1-2-5.41V24.74a7.268,7.268,0,0,1,2-5.4,8.341,8.341,0,0,1,10.88,0,7.271,7.271,0,0,1,2,5.4V35.83a7.69,7.69,0,0,1-12.91,5.41Zm7.83-2.57a3.661,3.661,0,0,0,.9-2.59V24.56a3.713,3.713,0,0,0-.9-2.63,3.109,3.109,0,0,0-2.41-1,3.071,3.071,0,0,0-2.37,1,3.673,3.673,0,0,0-.9,2.63V36.08a3.621,3.621,0,0,0,.9,2.59,3.071,3.071,0,0,0,2.37,1,3.109,3.109,0,0,0,2.41-1Z" fill="#192"/><path d="M303.21,32.68a.382.382,0,0,1,.13.3v2.88a.418.418,0,0,1-.13.31.41.41,0,0,1-.3.12h-1.3a.16.16,0,0,0-.18.137.155.155,0,0,0,0,.043v6a.418.418,0,0,1-.13.31.41.41,0,0,1-.3.12h-3.31a.431.431,0,0,1-.31-.12.461.461,0,0,1-.13-.31v-6a.16.16,0,0,0-.137-.18.155.155,0,0,0-.043,0h-9.86a.41.41,0,0,1-.43-.389.281.281,0,0,1,0-.041V33.52a1.61,1.61,0,0,1,.11-.54l5.86-15a.48.48,0,0,1,.51-.33h3.53q.54,0,.36.51L291.6,32.33a.14.14,0,0,0,0,.15.161.161,0,0,0,.13.07h5.32a.16.16,0,0,0,.18-.137.155.155,0,0,0,0-.043V27.73a.44.44,0,0,1,.44-.44H301a.42.42,0,0,1,.3.13.4.4,0,0,1,.13.31v4.64a.16.16,0,0,0,.137.18.155.155,0,0,0,.043,0h1.3A.382.382,0,0,1,303.21,32.68Z" fill="#192"/><path d="M4.64,17.13a19.236,19.236,0,0,1,5.47-7.81,4.79,4.79,0,0,1,4.58-.81L21,19.45c-.34,2.67-3.65,4.23-5.31,5-1,4.73,12.22,19.36,17.23,19.13.85-1.62,2.72-4.88,5.5-4.88l10.12,7.5a4.3,4.3,0,0,1-1.36,4.31,17.581,17.581,0,0,1-8.14,4.7C27.3,56,2.77,28.7,4.64,17.13Z" fill="#192" fill-rule="evenodd"/><path d="M40.6,18.57V10.09h2.61c-.34-.24-.69-.5-1.08-.74l1.24-1H40.71V6.55h7.86L50,7.44a36.594,36.594,0,0,1-3.18,2.65H50V17c0,.95-.26,1.47-1.06,1.63a8.813,8.813,0,0,1-1.9.05l-.37-1.84a5.64,5.64,0,0,0,.78,0c.15,0,.2-.07.2-.21v-.32H46.41v2.37H44.1v-2.4H42.92v2.34H40.69a3.6,3.6,0,0,0,1.67.38c1.82.05,6.37.05,8.55-.08l-.44,2.15c-2.08.06-6.43.08-8.48,0a4.169,4.169,0,0,1-3.33-1.41,26.434,26.434,0,0,1-2.16,1.72l-1-2.33a17.911,17.911,0,0,0,1.81-1V14.73H35.75V12.61h3.87v5.11A4.063,4.063,0,0,0,40.6,18.57Zm-3-12.1A13,13,0,0,1,40,9.32l-2,1.31a12.577,12.577,0,0,0-2.13-3Zm6.48,5.89v-.48H42.92v.48Zm0,2.19V14H42.92v.51Zm1-5.36c.31-.26.6-.53.88-.8H43.85c.43.27.85.53,1.21.8Zm2.6,3.17v-.48H46.41v.48Zm0,2.19V14H46.41v.51Z" fill="#50555a"/><path d="M59.91,8.87v1.89H53.3V8.87ZM56,15.61h3.4v5.15H56v.56H53.88V15.61Zm3.26-4.4V13H54V11.21Zm0,2.19v1.76H54V13.4Zm-.17-6.74V8.44H54.21V6.66ZM57.25,18.79V17.56H56v1.23Zm5.45,2.1v.45H60.41V14.57H62.9V13h-3V10.76h3V9.48c-.73.09-1.45.17-2.13.21l-.92-2.07a20.812,20.812,0,0,0,7-1.34l1.38,1.9A19.326,19.326,0,0,1,65.38,9v1.75h3V13h-3v1.6H68v6.77H65.56v-.45Zm2.86-2.19v-2H62.7v2Z" fill="#50555a"/><path d="M78.12,15.83l-1.41,1.84a14.151,14.151,0,0,0-.85-1.5v5.15H73.54V17.27a19.237,19.237,0,0,1-1.22,2l-1.6-1.86a13.783,13.783,0,0,0,2.73-3.86H70.9V11.41h2.64v-.75l-1.87.58A14.828,14.828,0,0,0,71,7.73l1.86-.59a16.5,16.5,0,0,1,.67,2.91V6.28h2.32v4A31.108,31.108,0,0,0,76.55,7l2.08.61c-.29,1-.69,2.37-1.13,3.57l-1.64-.56v.78h2.45v2.13H75.94C76.73,14.36,77.61,15.24,78.12,15.83Zm4-.45V13.69L80.25,15a10.059,10.059,0,0,0-1.92-2.42L80,11.32a11.787,11.787,0,0,1,2.18,2.32V9.86l-1.78,1a9.859,9.859,0,0,0-1.7-2.58l1.72-1.1a12.858,12.858,0,0,1,1.76,2.14V6.28h2.35V14.9l1.12-.24.46,2.28-1.58.33v4.05H82.14V17.78l-3.78.8-.47-2.3Z" fill="#50555a"/><path d="M55.65,43.22V41.4H53.3v-2h2.35v-.6l-.44.33-2-1.12a9,9,0,0,0,3.46-3.78l2.16.53a8.09,8.09,0,0,1-.48.93h9.14v2H66.12v1.72h2.26v2H66.12v1.82h1.43v2H54.32v-2Zm1.81,2.72a11.65,11.65,0,0,1-1.89,3.4l-2.29-.87a7.882,7.882,0,0,0,1.91-3.1Zm2.45-.46a18.427,18.427,0,0,1,.63,3.35l-2.34.3a18.985,18.985,0,0,0-.4-3.36ZM58.5,39.41V37.69h-.61v1.72Zm0,3.81V41.4h-.61v1.82Zm2.64-3.81V37.69h-.65v1.72Zm0,3.81V41.4h-.65v1.82Zm1.8,2.13a17.093,17.093,0,0,1,1,3.32l-2.27.48a15.712,15.712,0,0,0-.76-3.35Zm.86-5.94V37.69h-.67v1.72Zm0,3.81V41.4h-.67v1.82Zm2.42,2a17.886,17.886,0,0,1,2.14,3.33L66,49.34A16.093,16.093,0,0,0,64.09,46Z" fill="#50555a"/><path d="M78.12,43.83l-1.41,1.84a14.151,14.151,0,0,0-.85-1.5v5.15H73.54v-4a19.237,19.237,0,0,1-1.22,2l-1.6-1.86a13.783,13.783,0,0,0,2.73-3.86H70.9V39.41h2.64v-.75l-1.87.58A14.828,14.828,0,0,0,71,35.73l1.86-.59a16.5,16.5,0,0,1,.67,2.91V34.28h2.32v4a31.108,31.108,0,0,0,.7-3.28l2.08.61c-.29,1-.69,2.37-1.13,3.57l-1.64-.56v.78h2.45v2.13H75.94C76.73,42.36,77.61,43.24,78.12,43.83Zm4-.45V41.69L80.25,43a10.059,10.059,0,0,0-1.92-2.42L80,39.32a11.787,11.787,0,0,1,2.18,2.32V37.86l-1.78,1a9.859,9.859,0,0,0-1.7-2.58l1.72-1.1a12.858,12.858,0,0,1,1.76,2.14V34.28h2.35V42.9l1.12-.24.46,2.28-1.58.33v4H82.14V45.78l-3.78.8-.47-2.3Z" fill="#50555a"/><path d="M36.92,26.19H86.44" fill="none" stroke="#192" stroke-width="1.5"/><path d="M51.49,53.73H86.44" fill="none" stroke="#192" stroke-width="1.5"/></svg>