<svg xmlns="http://www.w3.org/2000/svg" viewBox="0 0 220 45"><path d="M52.367,22.689c0-3.2.626-5.182,1.553-6.57a6.32,6.32,0,0,1,10.221.044c1.414,2.117,1.507,5.138,1.507,6.526,0,1.654,0,9.15-6.629,9.15C52.367,31.839,52.367,24.3,52.367,22.689Zm9.99,0c0-3.814-.9-6.283-3.337-6.283-2.6-.022-3.338,2.777-3.338,6.283,0,3.749.858,6.284,3.338,6.284C61.592,28.973,62.357,26.217,62.357,22.689Z" fill="#30353a"/><path d="M69.865,18.257a2.022,2.022,0,0,1-.973.4,1.606,1.606,0,0,1-1.391-1.5c0-.529.44-.838.858-1.1l2.99-1.918a3.091,3.091,0,0,1,1.669-.6c1.715,0,1.715,1.346,1.715,1.9V30.36c0,.617-.186,1.477-1.646,1.477-1.112,0-1.668-.419-1.668-1.477V17.244Z" fill="#30353a"/><path d="M89.819,28.62c.742,0,1.53.242,1.53,1.411,0,1.014-.533,1.455-1.53,1.455h-9.2c-1.321,0-2.874,0-2.874-1.764,0-1.125.51-1.521,2.086-2.734A64.7,64.7,0,0,0,85.6,21.94a4.136,4.136,0,0,0,1.506-2.955,2.569,2.569,0,0,0-2.619-2.579A5.034,5.034,0,0,0,81.1,17.817a1.52,1.52,0,0,1-1.02.44,1.573,1.573,0,0,1-1.6-1.5c0-1.1,2.6-3.22,5.957-3.22,3.222,0,5.957,1.984,5.957,5.336,0,2.712-1.53,4.5-8.066,9.746Z" fill="#30353a"/><path d="M93.155,22.689c0-3.2.626-5.182,1.553-6.57a6.32,6.32,0,0,1,10.221.044c1.414,2.117,1.506,5.138,1.506,6.526,0,1.654,0,9.15-6.628,9.15C93.155,31.839,93.155,24.3,93.155,22.689Zm9.99,0c0-3.814-.9-6.283-3.337-6.283-2.6-.022-3.338,2.777-3.338,6.283,0,3.749.858,6.284,3.338,6.284C102.38,28.973,103.145,26.217,103.145,22.689Z" fill="#30353a"/><path d="M110.6,24.371a1.333,1.333,0,0,1-1.529-1.433c0-1.036.579-1.455,1.529-1.455h3.8c.765,0,1.529.265,1.529,1.434,0,1.013-.532,1.455-1.529,1.455h-3.8Z" fill="#30353a"/><path d="M125.831,19.779a5.858,5.858,0,0,1,6.143,5.909c0,3.7-2.943,6.151-6.514,6.151-3.453,0-7-2.227-7-7.915,0-5.754,3.639-10.385,9.016-10.385.766,0,1.669.265,1.669,1.456,0,1.345-.788,1.389-1.715,1.433a5.741,5.741,0,0,0-3.547,1.434,5.976,5.976,0,0,0-1.761,3.417A4.58,4.58,0,0,1,125.831,19.779Zm-.393,2.778c-1.716,0-3.569,1.08-3.569,3.02a3.392,3.392,0,0,0,3.522,3.4,3.094,3.094,0,0,0,3.269-3.285A2.958,2.958,0,0,0,125.438,22.557Z" fill="#30353a"/><path d="M134.313,22.689c0-3.2.625-5.182,1.553-6.57a6.321,6.321,0,0,1,10.222.044c1.413,2.117,1.506,5.138,1.506,6.526,0,1.654,0,9.15-6.629,9.15C134.313,31.839,134.313,24.3,134.313,22.689Zm9.989,0c0-3.814-.9-6.283-3.338-6.283-2.6-.022-3.337,2.777-3.337,6.283,0,3.749.857,6.284,3.337,6.284C143.537,28.973,144.3,26.217,144.3,22.689Z" fill="#30353a"/><path d="M150.325,16.714c0-.992,0-2.822,2.805-2.822h6.49a1.336,1.336,0,0,1,1.529,1.433,1.318,1.318,0,0,1-1.529,1.434h-5.494c-.6,0-.765.2-.765.749v3.043a8.057,8.057,0,0,1,2.6-.463c3.385,0,6.4,2.051,6.421,5.732,0,3.2-2.41,6.02-7.348,6.02A13.088,13.088,0,0,1,150.372,31c-.742-.309-1.066-.639-1.066-1.345a1.435,1.435,0,0,1,1.321-1.5,6.627,6.627,0,0,1,1.32.33,9.1,9.1,0,0,0,2.921.485c3.616,0,4.195-2.072,4.195-3.108,0-1.742-1.345-2.932-3.384-2.932a3.774,3.774,0,0,0-2.526.881,2.584,2.584,0,0,1-1.345.4c-1.483,0-1.483-1.014-1.483-1.609Z" fill="#30353a"/><path d="M166.13,24.371a1.333,1.333,0,0,1-1.529-1.433c0-1.036.579-1.455,1.529-1.455h3.8c.765,0,1.529.265,1.529,1.434,0,1.013-.532,1.455-1.529,1.455h-3.8Z" fill="#30353a"/><path d="M174.566,18.213c0-2.337,1.924-4.675,5.7-4.675s5.7,2.338,5.7,4.675a4.174,4.174,0,0,1-1.785,3.418,5.077,5.077,0,0,1,2.782,4.585c0,3.462-3.083,5.622-6.7,5.622-3.662,0-6.7-2.205-6.7-5.622a5.03,5.03,0,0,1,2.758-4.585A4.211,4.211,0,0,1,174.566,18.213Zm9.086,7.893c0-1.455-1.183-2.756-3.385-2.756-2.248,0-3.407,1.345-3.407,2.756,0,1.632,1.438,2.866,3.407,2.866C182.215,28.973,183.652,27.738,183.652,26.106Zm-.835-7.805a2.59,2.59,0,0,0-5.122,0c0,1.257.974,2.184,2.572,2.184A2.259,2.259,0,0,0,182.817,18.3Z" fill="#30353a"/><path d="M188.911,22.689c0-3.2.625-5.182,1.553-6.57a6.321,6.321,0,0,1,10.222.044c1.413,2.117,1.506,5.138,1.506,6.526,0,1.654,0,9.15-6.629,9.15C188.911,31.839,188.911,24.3,188.911,22.689Zm9.989,0c0-3.814-.9-6.283-3.338-6.283-2.6-.022-3.337,2.777-3.337,6.283,0,3.749.857,6.284,3.337,6.284C198.136,28.973,198.9,26.217,198.9,22.689Z" fill="#30353a"/><path d="M216.467,25.136c.719,0,1.483.243,1.483,1.367,0,.992-.557,1.39-1.483,1.39h-1.02v2.491c0,.419-.047,1.455-1.6,1.455-1.159,0-1.669-.484-1.669-1.433V27.892h-5.771c-.834,0-2.6,0-2.6-1.588,0-.75.278-1.146,1.043-2.183l6.583-9.083c.834-1.146,1.483-1.5,2.294-1.5,1.716,0,1.716,1.213,1.716,1.9v9.7h1.02Zm-9.179,0h4.891V18.28Z" fill="#30353a"/><g style="isolation:isolate"><path d="M57.578,40.41h3.133c.18,0,.549.027.549.5,0,.388-.126.576-.549.576H57.578v2.494c0,.288-.09.549-.531.549s-.639-.107-.639-.549V41.49H53.284c-.216,0-.558-.036-.558-.5,0-.369.117-.576.558-.576h3.124V37.331H53.617a.473.473,0,0,1-.549-.5c0-.369.126-.567.549-.567H60.4c.18,0,.549.019.549.505,0,.369-.135.558-.549.558H57.578Zm-3.368-.936c-.063-.18-.252-.657-.405-1.035a1,1,0,0,1-.108-.405c0-.279.324-.459.612-.459.369,0,.441.18.963,1.521a1.54,1.54,0,0,1,.162.576c0,.4-.45.5-.612.5C54.462,40.176,54.409,40.023,54.21,39.474Zm5.528.189c-.189.414-.27.576-.594.576-.3,0-.612-.162-.612-.478a1.731,1.731,0,0,1,.234-.657c.225-.495.4-.99.423-1.062.081-.234.153-.469.5-.469.135,0,.657.054.657.5A10.667,10.667,0,0,1,59.738,39.663Z" fill="#30353a"/><path d="M69.451,43.03c0,.918-.387,1.206-1.207,1.206H63.815c-.81,0-1.206-.279-1.206-1.206V37.583c0-.927.387-1.206,1.206-1.206h4.429c.811,0,1.207.279,1.207,1.206Zm-1.188-3.322V37.862a.35.35,0,0,0-.4-.387H64.185a.346.346,0,0,0-.387.387v1.846ZM63.8,40.779v1.972a.354.354,0,0,0,.387.4h3.682a.357.357,0,0,0,.4-.4V40.779Z" fill="#30353a"/><path d="M72.779,43.805c-.9,0-1.144-.234-1.144-.648a.534.534,0,0,1,.531-.576c.1,0,.513.054.6.054,1.629,0,1.89-1.4,2.007-2.008a1.811,1.811,0,0,1-1.467.612,2.274,2.274,0,0,1-2.35-2.367,2.472,2.472,0,0,1,2.547-2.539c.811,0,2.7.378,2.7,3.322C76.209,42.1,74.976,43.805,72.779,43.805Zm.729-6.3a1.281,1.281,0,0,0-1.26,1.351,1.226,1.226,0,0,0,1.27,1.278,1.315,1.315,0,1,0-.01-2.629Z" fill="#30353a"/><path d="M78.922,37.979a.819.819,0,1,1-.819-.819A.815.815,0,0,1,78.922,37.979Zm0,4.006a.819.819,0,1,1-.819-.811A.816.816,0,0,1,78.922,41.985Z" fill="#30353a"/><path d="M80.011,40.068a4.863,4.863,0,0,1,.6-2.683,2.386,2.386,0,0,1,3.97.017,5.276,5.276,0,0,1,.585,2.665c0,.675,0,3.736-2.575,3.736S80.011,40.726,80.011,40.068Zm3.88,0c0-1.558-.351-2.566-1.3-2.566-1.008-.009-1.3,1.135-1.3,2.566,0,1.53.333,2.565,1.3,2.565C83.594,42.634,83.891,41.509,83.891,40.068Z" fill="#30353a"/><path d="M86.369,40.068a4.863,4.863,0,0,1,.6-2.683,2.386,2.386,0,0,1,3.97.017,5.276,5.276,0,0,1,.585,2.665c0,.675,0,3.736-2.575,3.736S86.369,40.726,86.369,40.068Zm3.88,0c0-1.558-.351-2.566-1.3-2.566-1.008-.009-1.3,1.135-1.3,2.566,0,1.53.333,2.565,1.3,2.565C89.952,42.634,90.249,41.509,90.249,40.068Z" fill="#30353a"/><path d="M100.813,40.068c0,.369-1.017,1.233-2.305,1.233-.7,0-.936-.126-2.053-.712A2.885,2.885,0,0,0,95,40.1a2.083,2.083,0,0,0-1.44.566c-.171.162-.207.2-.36.2a.469.469,0,0,1-.468-.459c0-.387,1-1.233,2.323-1.233a3.8,3.8,0,0,1,1.99.666,2.662,2.662,0,0,0,1.467.522,2.071,2.071,0,0,0,1.377-.495c.3-.261.315-.279.441-.279A.483.483,0,0,1,100.813,40.068Z" fill="#30353a"/><path d="M102.542,38.259a.768.768,0,0,1-.378.162.643.643,0,0,1-.54-.612c0-.216.171-.342.333-.45l1.161-.783a1.167,1.167,0,0,1,.648-.243c.666,0,.666.549.666.774V43.2c0,.252-.072.6-.639.6-.432,0-.648-.172-.648-.6V37.846Z" fill="#30353a"/><path d="M107.915,43.805c-.9,0-1.144-.234-1.144-.648a.534.534,0,0,1,.531-.576c.1,0,.513.054.6.054,1.629,0,1.89-1.4,2.007-2.008a1.811,1.811,0,0,1-1.467.612,2.274,2.274,0,0,1-2.35-2.367,2.472,2.472,0,0,1,2.547-2.539c.811,0,2.7.378,2.7,3.322C111.346,42.1,110.112,43.805,107.915,43.805Zm.729-6.3a1.281,1.281,0,0,0-1.26,1.351,1.226,1.226,0,0,0,1.27,1.278,1.315,1.315,0,1,0-.01-2.629Z" fill="#30353a"/><path d="M114.058,37.979a.819.819,0,1,1-.819-.819A.815.815,0,0,1,114.058,37.979Zm0,4.006a.819.819,0,1,1-.819-.811A.816.816,0,0,1,114.058,41.985Z" fill="#30353a"/><path d="M115.147,40.068a4.863,4.863,0,0,1,.6-2.683,2.386,2.386,0,0,1,3.97.017,5.276,5.276,0,0,1,.585,2.665c0,.675,0,3.736-2.575,3.736S115.147,40.726,115.147,40.068Zm3.88,0c0-1.558-.352-2.566-1.3-2.566-1.008-.009-1.3,1.135-1.3,2.566,0,1.53.333,2.565,1.3,2.565C118.73,42.634,119.027,41.509,119.027,40.068Z" fill="#30353a"/><path d="M121.505,40.068a4.863,4.863,0,0,1,.6-2.683,2.386,2.386,0,0,1,3.97.017,5.276,5.276,0,0,1,.585,2.665c0,.675,0,3.736-2.575,3.736S121.505,40.726,121.505,40.068Zm3.88,0c0-1.558-.352-2.566-1.3-2.566-1.008-.009-1.3,1.135-1.3,2.566,0,1.53.333,2.565,1.3,2.565C125.088,42.634,125.385,41.509,125.385,40.068Z" fill="#30353a"/><path d="M132.044,36.755c.117-.261.2-.423.441-.423s.549.18.549.441a.847.847,0,0,1-.1.333l-2.89,6.274c-.126.271-.2.424-.441.424s-.549-.181-.549-.441a.843.843,0,0,1,.1-.333Z" fill="#30353a"/><path d="M142.6,38.366a.489.489,0,0,1,.559.55c0,.531-.343.566-.559.566h-2.646v3.593h3.069c.153,0,.55,0,.55.558,0,.514-.315.567-.55.567h-7.364c-.162,0-.549-.009-.549-.558,0-.522.333-.567.549-.567h3.1V39.482h-2.62c-.18,0-.549-.018-.549-.558,0-.495.288-.559.549-.559h2.62V36.457c0-.324.2-.486.558-.486s.64.09.64.486v1.908H142.6Z" fill="#30353a"/><path d="M151.772,43.03c0,.918-.387,1.206-1.206,1.206h-4.43c-.81,0-1.206-.279-1.206-1.206V37.583c0-.927.387-1.206,1.206-1.206h4.43c.811,0,1.206.279,1.206,1.206Zm-1.188-3.322V37.862a.35.35,0,0,0-.4-.387h-3.683a.346.346,0,0,0-.387.387v1.846Zm-4.465,1.071v1.972a.354.354,0,0,0,.387.4h3.683a.357.357,0,0,0,.4-.4V40.779Z" fill="#30353a"/><path d="M155.632,37.305a.635.635,0,0,1,.693.711,2.1,2.1,0,0,1-.162.756,7.323,7.323,0,0,1-.486.928,6.308,6.308,0,0,0,.676.783c.225.225.342.324.342.521a.562.562,0,0,1-.531.522c-.171,0-.261-.107-.423-.315-.1-.126-.117-.152-.315-.432v3.178c0,.4-.171.559-.594.559a.488.488,0,0,1-.531-.559V41.319c-.333.307-.433.388-.64.388a.615.615,0,0,1-.567-.631c0-.3.136-.405.657-.819a4.314,4.314,0,0,0,1.351-1.746c0-.135-.135-.135-.207-.135h-1.2c-.333,0-.558-.117-.558-.559a.481.481,0,0,1,.558-.513h.612v-.783c0-.405.18-.559.594-.559a.482.482,0,0,1,.522.559V37.3h.206Zm4.385,5.653c0,.342.144.342.369.342.171,0,.3,0,.333-.594.036-.648.045-.864.486-.864.468,0,.495.3.495.576a4.6,4.6,0,0,1-.262,1.692c-.188.288-.531.306-1.144.306-1.044,0-1.305-.054-1.305-1.017V40.284h-.55a5.41,5.41,0,0,1-.9,3.277c-.217.288-.748.891-1.126.891a.62.62,0,0,1-.585-.576.541.541,0,0,1,.243-.44c.846-.748,1.3-1.135,1.377-3.16a.84.84,0,0,1-.63-.324,1.227,1.227,0,0,1-.171-.711V37.3c0-.8.342-1.035,1.035-1.035h2.683c.693,0,1.045.234,1.045,1.035v1.945c0,.773-.315,1.044-1.045,1.044h-.351v2.673Zm.288-5.348A.274.274,0,0,0,160,37.3h-1.944a.281.281,0,0,0-.315.315v1.368c0,.217.108.307.315.307H160a.269.269,0,0,0,.307-.307Z" fill="#30353a"/><path d="M164.406,43.805c-.9,0-1.144-.234-1.144-.648a.534.534,0,0,1,.531-.576c.1,0,.513.054.6.054,1.629,0,1.89-1.4,2.007-2.008a1.811,1.811,0,0,1-1.467.612,2.274,2.274,0,0,1-2.35-2.367,2.472,2.472,0,0,1,2.547-2.539c.811,0,2.7.378,2.7,3.322C167.836,42.1,166.6,43.805,164.406,43.805Zm.729-6.3a1.281,1.281,0,0,0-1.26,1.351,1.226,1.226,0,0,0,1.27,1.278,1.315,1.315,0,1,0-.01-2.629Z" fill="#30353a"/><path d="M170.549,37.979a.819.819,0,1,1-.819-.819A.816.816,0,0,1,170.549,37.979Zm0,4.006a.819.819,0,1,1-.819-.811A.816.816,0,0,1,170.549,41.985Z" fill="#30353a"/><path d="M171.638,40.068a4.853,4.853,0,0,1,.6-2.683,2.385,2.385,0,0,1,3.969.017,5.265,5.265,0,0,1,.585,2.665c0,.675,0,3.736-2.574,3.736S171.638,40.726,171.638,40.068Zm3.88,0c0-1.558-.351-2.566-1.3-2.566-1.009-.009-1.3,1.135-1.3,2.566,0,1.53.334,2.565,1.3,2.565C175.221,42.634,175.518,41.509,175.518,40.068Z" fill="#30353a"/><path d="M178,40.068a4.853,4.853,0,0,1,.6-2.683,2.385,2.385,0,0,1,3.969.017,5.265,5.265,0,0,1,.585,2.665c0,.675,0,3.736-2.574,3.736S178,40.726,178,40.068Zm3.88,0c0-1.558-.351-2.566-1.3-2.566-1.009-.009-1.3,1.135-1.3,2.566,0,1.53.334,2.565,1.3,2.565C181.578,42.634,181.875,41.509,181.875,40.068Z" fill="#30353a"/><path d="M192.438,40.068c0,.369-1.017,1.233-2.3,1.233-.7,0-.936-.126-2.053-.712a2.882,2.882,0,0,0-1.458-.485,2.083,2.083,0,0,0-1.44.566c-.171.162-.207.2-.36.2a.469.469,0,0,1-.468-.459c0-.387,1-1.233,2.322-1.233a3.794,3.794,0,0,1,1.99.666,2.662,2.662,0,0,0,1.467.522,2.074,2.074,0,0,0,1.378-.495c.3-.261.314-.279.441-.279A.483.483,0,0,1,192.438,40.068Z" fill="#30353a"/><path d="M194.168,38.259a.764.764,0,0,1-.378.162.643.643,0,0,1-.54-.612c0-.216.171-.342.333-.45l1.161-.783a1.17,1.17,0,0,1,.648-.243c.666,0,.666.549.666.774V43.2c0,.252-.071.6-.639.6-.433,0-.648-.172-.648-.6V37.846Z" fill="#30353a"/><path d="M198.173,37.646a.586.586,0,1,1,0-1.171h3.916c.5,0,.883.055.883.667a1.716,1.716,0,0,1-.288.927l-3.062,5.312c-.144.252-.242.424-.585.424a.617.617,0,0,1-.657-.559.9.9,0,0,1,.189-.486l2.979-5.113h-3.375Z" fill="#30353a"/><path d="M205.376,37.979a.819.819,0,1,1-.819-.819A.815.815,0,0,1,205.376,37.979Zm0,4.006a.819.819,0,1,1-.819-.811A.816.816,0,0,1,205.376,41.985Z" fill="#30353a"/><path d="M208.521,40.4a.477.477,0,0,1-.54-.522.471.471,0,0,1,.54-.531h.18c.693,0,1.233-.351,1.233-.954,0-.693-.684-.892-1.062-.892a2.355,2.355,0,0,0-1.3.4.6.6,0,0,1-.333.117.588.588,0,0,1-.531-.595c0-.306.234-.45.423-.566a3.173,3.173,0,0,1,1.773-.522,2.055,2.055,0,0,1,2.3,1.953,1.577,1.577,0,0,1-.918,1.468,1.894,1.894,0,0,1,1.332,1.846c0,1.035-.783,2.206-2.916,2.206a4.392,4.392,0,0,1-1.837-.352.55.55,0,0,1-.414-.522c0-.288.189-.639.522-.639a1.5,1.5,0,0,1,.485.135,3.442,3.442,0,0,0,1.233.207c1.152,0,1.639-.558,1.639-1.188,0-.36-.2-1.044-1.558-1.044h-.259Z" fill="#30353a"/><path d="M212.709,40.068a4.863,4.863,0,0,1,.6-2.683,2.386,2.386,0,0,1,3.97.017,5.276,5.276,0,0,1,.585,2.665c0,.675,0,3.736-2.575,3.736S212.709,40.726,212.709,40.068Zm3.88,0c0-1.558-.352-2.566-1.3-2.566-1.008-.009-1.3,1.135-1.3,2.566,0,1.53.333,2.565,1.3,2.565C216.292,42.634,216.589,41.509,216.589,40.068Z" fill="#30353a"/></g><path d="M56.7,3.4a6.923,6.923,0,0,1-3.1,5.4.6.6,0,0,1-.4.1.684.684,0,0,1-.7-.7.864.864,0,0,1,.3-.6,5.417,5.417,0,0,0,2.5-4.3h-2a.56.56,0,0,1-.6-.5V2.7a.576.576,0,0,1,.6-.6h2.1V1.3a.76.76,0,0,1,.8-.6.9.9,0,0,1,.6.6v.8H59a1.246,1.246,0,0,1,1.4,1v.3c0,1.2-.1,2.3-.2,3.5A2.3,2.3,0,0,1,57.8,9h0a6.753,6.753,0,0,1-1.4-.2.669.669,0,0,1-.6-.7.684.684,0,0,1,.7-.7h.2a3.6,3.6,0,0,0,1.1.2c1,0,1.1-.7,1.2-4.1,0-.1-.1-.2-.2-.3Z" fill="#30353a"/><path d="M67.5,2.7H63.4a.645.645,0,0,1-.6-.6V2a.645.645,0,0,1,.6-.6h4.4c.9,0,1.3.5,1.3,1.1A5.362,5.362,0,0,1,68,5.2a15.706,15.706,0,0,1,2.1,2.4.6.6,0,0,1,.1.4.713.713,0,0,1-.8.7.864.864,0,0,1-.6-.3,18.4,18.4,0,0,0-1.7-2.2,8.443,8.443,0,0,1-4.5,2.7.684.684,0,0,1-.7-.7h0a.56.56,0,0,1,.5-.6,6.767,6.767,0,0,0,5.1-4.7c.2-.1.2-.1,0-.2Z" fill="#30353a"/><path d="M72.9,9a.669.669,0,0,1-.7-.6h0a.576.576,0,0,1,.6-.6h.1a6.672,6.672,0,0,0,3.8-1.5,7.607,7.607,0,0,0-1.9-1.2.55.55,0,0,1-.3-.5.684.684,0,0,1,.7-.7,7.45,7.45,0,0,1,2.5,1.3,5.6,5.6,0,0,0,1-2.4c0-.1-.1-.2-.2-.3H75.8a.55.55,0,0,0-.5.3c-.9,1.3-2.1,2.4-2.6,2.4a.684.684,0,0,1-.7-.7.55.55,0,0,1,.3-.5,6.06,6.06,0,0,0,1.9-2,1.371,1.371,0,0,1,1.3-.6h3.3a1.108,1.108,0,0,1,1.2,1v.2A7.393,7.393,0,0,1,73,9Z" fill="#30353a"/><path d="M82.2,2.8a.576.576,0,0,1-.6-.6h0a.858.858,0,0,1,.6-.7h6.5A1.168,1.168,0,0,1,90,2.6c0,1-1.8,3-3.2,4.1.8.9.9,1.1.9,1.4a.86.86,0,0,1-.8.8.622.622,0,0,1-.6-.4A20.962,20.962,0,0,0,83.2,5a.55.55,0,0,1-.3-.5c0-.4.3-.6.7-.6a.764.764,0,0,1,.5.2c.6.5,1.2,1.1,1.8,1.7A9.67,9.67,0,0,0,88.4,3c0-.1-.1-.1-.2-.1Z" fill="#30353a"/><path d="M92.4,5.5a.669.669,0,0,1-.7-.6V4.8a.669.669,0,0,1,.6-.7h6.4a.684.684,0,0,1,.7.7h0a.669.669,0,0,1-.6.7H92.4Z" fill="#30353a"/><path d="M102.9,4l-1.1.1h-.1a.645.645,0,0,1-.6-.6h0a.56.56,0,0,1,.5-.6l1.2-.1V1.3c0-.4.3-.6.7-.6a.752.752,0,0,1,.7.5h0V2.4l3.9-.4h.2a.993.993,0,0,1,1.1.9V3c0,.6-.5,1.8-2.2,3-.1.1-.2.1-.4.1a.684.684,0,0,1-.7-.7.55.55,0,0,1,.3-.5,4.306,4.306,0,0,0,1.5-1.5c0-.1-.1-.1-.2-.1l-3.6.4V6.4c0,.7.3,1,1.6,1a10.9,10.9,0,0,0,2.6-.3h.2a.684.684,0,0,1,.7.7h0a.73.73,0,0,1-.6.7,9.253,9.253,0,0,1-2.9.2c-2.1,0-3-.5-3-2.1Z" fill="#30353a"/><path d="M113.6,3.9a13.3,13.3,0,0,0-1.9-1.4.55.55,0,0,1-.3-.5.684.684,0,0,1,.7-.7.6.6,0,0,1,.4.1,12.777,12.777,0,0,1,2.1,1.4c.2.1.2.3.3.5a.789.789,0,0,1-.8.8A.764.764,0,0,1,113.6,3.9ZM112.4,9h-.1a.652.652,0,1,1-.1-1.3c3.7-.4,5.1-2.4,5.8-5.1a.752.752,0,0,1,.7-.5c.4,0,.7.2.7.6h0v.2A7.556,7.556,0,0,1,112.4,9Z" fill="#30353a"/><path d="M121.7,9a.669.669,0,0,1-.7-.6h0a.576.576,0,0,1,.6-.6h.1a6.672,6.672,0,0,0,3.8-1.5,7.607,7.607,0,0,0-1.9-1.2.55.55,0,0,1-.3-.5.684.684,0,0,1,.7-.7,7.45,7.45,0,0,1,2.5,1.3,5.6,5.6,0,0,0,1-2.4c0-.1-.1-.2-.2-.3h-2.7a.55.55,0,0,0-.5.3c-.9,1.3-2.1,2.4-2.6,2.4a.684.684,0,0,1-.7-.7c0-.2.1-.5.4-.5a6.06,6.06,0,0,0,1.9-2,1.371,1.371,0,0,1,1.3-.6h3.3a1.033,1.033,0,0,1,1.2.9v.2A7.688,7.688,0,0,1,121.7,9Z" fill="#30353a"/><path d="M131.4,5.5a.669.669,0,0,1-.7-.6V4.8a.669.669,0,0,1,.6-.7h6.4a.669.669,0,0,1,.7.6v.1a.669.669,0,0,1-.6.7h-6.4Z" fill="#30353a"/><path d="M148.2,8.7a.764.764,0,0,1-.5-.2c-1.4-1.3-2.9-3.8-4.1-5.1,0-.1-.1-.1-.2-.1a.215.215,0,0,0-.2.2c-.4.8-1.1,2.3-1.7,3.3a.775.775,0,0,1-1,.2.6.6,0,0,1-.3-.6.764.764,0,0,1,.2-.5,20.16,20.16,0,0,0,1.8-3.2,1.34,1.34,0,0,1,1.3-.8,1.612,1.612,0,0,1,1.3.6,62.581,62.581,0,0,0,4.1,4.9.713.713,0,0,1,.3.6C148.9,8.4,148.6,8.7,148.2,8.7Z" fill="#30353a"/><path d="M154.4,2.3a.634.634,0,0,1,.5.6,11.914,11.914,0,0,1-1.4,4.4,1.986,1.986,0,0,1-1.6,1.2c-.7,0-2.1-.9-2.1-3A4.247,4.247,0,0,1,154,1.2h.2c2.9,0,4.2,1.9,4.2,3.7a3.9,3.9,0,0,1-3.8,4h-.1a.684.684,0,0,1-.7-.7h0a.56.56,0,0,1,.5-.6h0A2.564,2.564,0,0,0,157,5.2V5a2.582,2.582,0,0,0-2.6-2.6c.1-.1.1-.1,0-.1Zm-3.3,3.1c0,.9.4,1.6.8,1.6.7,0,1.6-3.1,1.6-4.3a.664.664,0,0,1,.4-.5A3.15,3.15,0,0,0,151.1,5.4Z" fill="#30353a"/><path d="M164.3,7.6h.3c1.5,0,2.1-.6,2.1-1.3S165.9,5,164.4,5a4.1,4.1,0,0,0-1.1.1V7.2c0,1.3-.5,1.7-1.5,1.7a1.973,1.973,0,0,1-2-1.8,3.2,3.2,0,0,1,2.3-2.8V3.1h-1.5a.645.645,0,0,1-.6-.6h0a.56.56,0,0,1,.5-.6h1.6V1.3a.5.5,0,0,1,.6-.5h0a.56.56,0,0,1,.6.5h0v.6c.5,0,.9-.1,1.3-.1h.1a.645.645,0,0,1,.6.6v.1a.56.56,0,0,1-.5.6c-.5,0-.9.1-1.4.1V4a4.1,4.1,0,0,1,1.1-.1c1.8,0,3.4.6,3.4,2.4S166.4,9,164.6,9h-.4c-.4,0-.6-.3-.6-.7a.56.56,0,0,1,.5-.6h.1Zm-2.1-2q-1.2.6-1.2,1.5a.73.73,0,0,0,.7.6c.3,0,.4,0,.4-.4Zm5.1-1.9a6.39,6.39,0,0,0-1.5-1.3.55.55,0,0,1-.3-.5.645.645,0,0,1,.6-.6,5.106,5.106,0,0,1,2.1,1.5.758.758,0,0,1,.2.4.684.684,0,0,1-.7.7.758.758,0,0,1-.4-.2Z" fill="#30353a"/><path d="M169.4,1.2c0-.5.2-.7.7-.7h2.6c.3-.1.6.2.7.5V3.6a.73.73,0,0,1-.6.7h-2.2V8.7a.752.752,0,0,1-.7.5c-.2,0-.4-.2-.5-.5V1.2Zm2.9.4h-1.7V2h1.7Zm0,1.2h-1.7v.5h1.7Zm4.4,1.5h-2.2a.752.752,0,0,1-.7-.5V1.2a.752.752,0,0,1,.5-.7h2.9a.752.752,0,0,1,.7.5V8.1c0,.8-.3,1.1-1.3,1.1a3.75,3.75,0,0,1-1.1-.1c-.3-.1-.5-.3-.4-.6a.6.6,0,0,1,.1-.4H172a.661.661,0,0,1-.7-.6V5.6c0-.4.2-.7.6-.7h3.4c.4,0,.7.2.7.6v2a.764.764,0,0,1-.2.5c.2,0,.4.1.6.1s.3-.1.3-.2Zm-1.9,1.6h-2.4V7h2.4Zm1.9-4.3h-1.8V2h1.8Zm0,1.2h-1.8v.5h1.8Z" fill="#30353a"/><path d="M179.6,4a13.4,13.4,0,0,1,.1-2,.563.563,0,0,1,.7-.6.749.749,0,0,1,.7.6h0v.1a13.4,13.4,0,0,0-.1,2c0,2.2.6,3.4,1.1,3.4.2,0,.5-.2.8-1.4a.634.634,0,0,1,.6-.5.684.684,0,0,1,.7.7h0c0,.4-.6,2.5-2.1,2.5C180.7,8.9,179.6,7.2,179.6,4Zm8.3,3a.773.773,0,0,1-.7.8h-.1a.669.669,0,0,1-.7-.6V7.1A6.3,6.3,0,0,0,185,2.7c-.1-.1-.1-.2-.1-.4a.645.645,0,0,1,.6-.6.55.55,0,0,1,.5.3,7.583,7.583,0,0,1,1.9,5Z" fill="#30353a"/><path d="M196.3,3.3v.2a.56.56,0,0,1-.5.6H191a.56.56,0,0,1-.5-.6h0a.367.367,0,0,1,.1-.3,3.552,3.552,0,0,1-.9.4.773.773,0,0,1-.7-.8c0-.2.1-.5.4-.5A17.1,17.1,0,0,0,192.7.6a1.217,1.217,0,0,1,1.6,0,12.887,12.887,0,0,0,3.3,1.7.675.675,0,0,1,.4.6.849.849,0,0,1-.7.8.367.367,0,0,1-.3-.1ZM190.4,9c-.4,0-.8-.2-.8-.6V5.6a.641.641,0,0,1,.6-.8h6.1a.641.641,0,0,1,.8.6V8.2a.641.641,0,0,1-.6.8h-6.1Zm5.5-3h0l-.1-.1H191c-.1,0-.1,0-.1.1V7.7c0,.1,0,.1.1.1h4.8a.1.1,0,0,0,.1-.1h0Zm-.3-3.1a16.443,16.443,0,0,1-2.2-1.4h0c-.7.5-1.5.9-2.2,1.4Z" fill="#30353a"/><path d="M202.1,8.5c0,.4-.3.6-.7.6h0a.576.576,0,0,1-.6-.6h0a20.025,20.025,0,0,1,.3-2.8c-.3.6-.8,1.9-.9,2.2a.675.675,0,0,1-.6.4.645.645,0,0,1-.6-.6.367.367,0,0,1,.1-.3c.3-.6,1.4-2.5,2-3.5V3.7a4.869,4.869,0,0,1-1.2.1.576.576,0,0,1-.6-.6V3.1a.56.56,0,0,1,.5-.6h.1a5.7,5.7,0,0,0,1.3-.1c0-.5.1-1,.1-1.3a.669.669,0,0,1,.7-.6.73.73,0,0,1,.7.6h0v.1a5.284,5.284,0,0,0-.1,1.2h.1c.1.1.2.1.2.2v.2h0a3.171,3.171,0,0,1,4.4.6,3,3,0,0,1,.6,1.8,2.769,2.769,0,0,1-.1.9,3.963,3.963,0,0,1-3.7,2.8.7.7,0,0,1,0-1.4,2.738,2.738,0,0,0,2.5-1.6,2.769,2.769,0,0,0,.1-.9,1.669,1.669,0,0,0-1.5-1.8h-.3a3.3,3.3,0,0,0-2.4,1.2c0,1.1-.1,2.6-.1,3.6v.5Z" fill="#30353a"/><path d="M216.6,5.2a1.33,1.33,0,0,1-1.5,1.4c-.4,0-.7-.1-1.1-.1a.56.56,0,0,1-.5-.6.73.73,0,0,1,.6-.7h.1c.2.1.5.1.8.2.3,0,.4-.1.5-.7V3.9c-1.1,0-2.2.1-3.1.1v.7c0,2.5,0,2.8,2.1,2.8a13.552,13.552,0,0,0,2-.2h.1a.645.645,0,0,1,.6.6h0a.669.669,0,0,1-.6.7,14.769,14.769,0,0,1-2.1.1c-2.6,0-3.2-.7-3.3-2.6V4.2l-1.2.1h-.1a.645.645,0,0,1-.6-.6h0a.576.576,0,0,1,.6-.6h0l1.2-.1V1.5h0a.645.645,0,0,1,.6-.6h0a.576.576,0,0,1,.6.6h0V2.9c1.3-.1,2.2-.1,3.1-.1V1.3a.536.536,0,0,1,.5-.5h0a.752.752,0,0,1,.7.5h0V2.8l1-.1h.1a.576.576,0,0,1,.6.6v.1a.73.73,0,0,1-.6.7h-1.2Z" fill="#30353a"/><path d="M14.07,17.65a2.909,2.909,0,0,1-2.76-1.28,4.594,4.594,0,0,1-.69.84c-.4.4-.54.52-.75.52a.669.669,0,0,1-.62-.66c0-.27.16-.42.43-.63a5.682,5.682,0,0,0,1-.91v-2.2c0-.09,0-.34-.3-.34H9.81a.47.47,0,0,1-.52-.52c0-.41.16-.58.55-.58h.79c.91,0,1.1.24,1.1,1.11v2c.08.44.25,1.54,2.31,1.54h4.82a.488.488,0,0,1,.547.425.5.5,0,0,1,0,.095.519.519,0,0,1-.466.569.59.59,0,0,1-.094,0Zm-4-9.7c.33,0,1,.59,1.35.9a3.7,3.7,0,0,1,.62.63.358.358,0,0,1,.07.23.65.65,0,0,1-.57.63c-.25,0-.4-.13-.65-.39A10.005,10.005,0,0,0,10,9.13c-.27-.21-.47-.36-.47-.6A.6.6,0,0,1,10.05,8Zm4.66,2.4c-.31-.24-.59-.44-.7-.51a.42.42,0,0,1-.25-.37s0-.27.39-.39h-1.3c-.2,0-.48-.05-.48-.46a.42.42,0,0,1,.382-.455.392.392,0,0,1,.108.005h4.81c.29,0,.86,0,.86.54s-.2.81-2,1.64H17.9c.89,0,1.1.22,1.1,1.08v3.62c0,1.07-.38,1.09-1.35,1.09-.5,0-.83,0-.83-.51a.37.37,0,0,1,.27-.41,4.864,4.864,0,0,1,.54,0c.11,0,.31,0,.31-.32v-.65H16.26v1.34c0,.4-.2.51-.54.51-.49,0-.51-.33-.51-.51V14.25H13.56v1.39a.47.47,0,0,1-.4.53.465.465,0,0,1-.129,0,.49.49,0,0,1-.532-.444.47.47,0,0,1,0-.106V11.43c0-.91.26-1.08,1.13-1.08Zm.5,1.57v-.75H13.85c-.24,0-.29.14-.29.3v.45Zm0,.79H13.56v.76h1.65Zm-.78-3.63a6.9,6.9,0,0,1,1.29.85C16,9.82,17,9.29,17,9.15s-.09-.07-.16-.07Zm1.83,2.84h1.68v-.45a.27.27,0,0,0-.236-.3.229.229,0,0,0-.064,0h-1.4Zm1.68.79h-1.7v.76h1.68Z" fill="#c2a979"/><path d="M23.66,9.7a.43.43,0,0,1,.5.339.442.442,0,0,1,.005.131c0,.47-.33.49-.51.49H20.45a.421.421,0,0,1-.489-.338.4.4,0,0,1,0-.142.421.421,0,0,1,.49-.48Zm-.34-1.54a.46.46,0,1,1,0,.92H20.77a.42.42,0,0,1-.486-.341.431.431,0,0,1,0-.119.42.42,0,0,1,.371-.464.431.431,0,0,1,.119,0Zm0,3.1a.47.47,0,1,1,0,.94H20.779a.47.47,0,1,1,0-.94H23.32Zm0,1.57a.42.42,0,0,1,.486.341.431.431,0,0,1,0,.119c0,.46-.36.46-.51.46H20.78a.46.46,0,0,1,0-.92Zm.44,3.79c0,.83-.19,1.05-1,1.05H21.39c-.85,0-1.06-.22-1.06-1.05v-1.2c0-.84.22-1.05,1.06-1.05h1.33c.83,0,1.05.2,1.05,1.05Zm-1-1.1c0-.16-.06-.3-.29-.3h-.86a.27.27,0,0,0-.291.247.313.313,0,0,0,0,.053v.94a.261.261,0,0,0,.214.3.242.242,0,0,0,.076,0h.86a.26.26,0,0,0,.291-.224.276.276,0,0,0,0-.076Zm4.89-4.67h1.94a.51.51,0,1,1,.2,1,.523.523,0,0,1-.2,0h-1.9v1.59h.77c.85,0,1.19.31,1.19,1.2v1.82c0,.9-.36,1.19-1.19,1.19h-2.63c-.81,0-1.19-.26-1.19-1.19v-1.8c0-.9.35-1.2,1.19-1.2h.78V11.87h-2a.46.46,0,0,1-.518-.394.418.418,0,0,1,0-.106c0-.49.33-.52.52-.52h2V9.33c-.86.07-1.48.12-1.83.12a.48.48,0,0,1-.539-.413.458.458,0,0,1,0-.117c0-.44.31-.45.51-.46.83-.05,1.8-.09,3-.25.25,0,1.39-.29,1.55-.29.4,0,.46.42.46.54a.44.44,0,0,1-.27.43,16.789,16.789,0,0,1-1.78.33Zm.89,4a.37.37,0,0,0-.312-.42.391.391,0,0,0-.108,0h-2a.37.37,0,0,0-.42.312.391.391,0,0,0,0,.108v1.36a.37.37,0,0,0,.312.42.391.391,0,0,0,.108,0h2a.37.37,0,0,0,.42-.312.391.391,0,0,0,0-.108Z" fill="#c2a979"/><path d="M32.67,14.21a7.84,7.84,0,0,1-.8,1.35c-.24.32-.37.42-.57.42a.63.63,0,0,1-.55-.63c0-.19,0-.22.52-.82a9.723,9.723,0,0,0,1.4-2.29H31.35c-.37,0-.56-.14-.56-.54a.48.48,0,0,1,.473-.487.51.51,0,0,1,.087.007h1.32V8.33c0-.41.18-.55.57-.55a.48.48,0,0,1,.51.55v2.89h1.16c.28,0,.56.07.56.51a.489.489,0,0,1-.464.514.514.514,0,0,1-.1,0H33.75v.07a9.164,9.164,0,0,0,.94,1.34c.49.57.51.59.51.78a.561.561,0,0,1-.51.53c-.3,0-.54-.43-.94-1.12v3.54c0,.39-.17.56-.57.56a.481.481,0,0,1-.516-.442.465.465,0,0,1,.006-.118ZM32,9.16a7.743,7.743,0,0,1,.3,1.2c0,.37-.45.42-.57.42-.29,0-.32-.14-.44-.64a10.129,10.129,0,0,0-.33-1.08,1.151,1.151,0,0,1-.06-.29c0-.28.33-.4.53-.4S31.75,8.53,32,9.16Zm3.59-.37a6.729,6.729,0,0,1-.41,1.46c-.17.45-.28.56-.5.56s-.53-.11-.53-.43c0-.08.24-.77.29-.93s.18-.74.24-.85A.32.32,0,0,1,35,8.38c.42,0,.55.25.55.41Zm4.68,4.74c.59-.1.62.43.62.62s-.08.38-.44.46l-.63.13v2.62a.491.491,0,0,1-.411.558.507.507,0,0,1-.129,0c-.43,0-.63-.12-.63-.56V15l-2.82.55c-.39.08-.61-.18-.61-.56a.439.439,0,0,1,.387-.487l.033,0,3-.6V8.32c0-.22,0-.56.53-.56s.64.12.64.56v5.3Zm-3-1.8a5.679,5.679,0,0,1,.71.65.385.385,0,0,1,.08.24.661.661,0,0,1-.59.62c-.17,0-.2,0-.56-.36a8.884,8.884,0,0,0-1-.82.38.38,0,0,1-.16-.33.58.58,0,0,1,.52-.58c.21,0,.63.34.93.58Zm.48-2.68c.57.49.6.54.6.76a.6.6,0,0,1-.54.59c-.19,0-.24-.05-.72-.49l-.78-.68a.462.462,0,0,1-.16-.34.55.55,0,0,1,.52-.54c.08,0,.23.02,1.01.7Z" fill="#c2a979"/><path d="M22.87,21.23c.23,0,.74,0,.74.65s-.32.65-.72.65h-1v2.78H23.5c.3,0,.72.05.72.65s-.3.67-.72.67H21.88v3.06H23.1a.611.611,0,0,1,.711.489.555.555,0,0,1,.009.141c0,.63-.5.65-.74.65H8.81c-.19,0-.74,0-.74-.63s.49-.65.72-.65h1.62V26.63h-2c-.21,0-.72,0-.72-.65s.38-.67.72-.67h2V23.1c-.48.45-1.5,1.38-2,1.38a.75.75,0,0,1-.74-.75A.629.629,0,0,1,8,23.18a11.015,11.015,0,0,0,2.69-2.46c.74-1,.76-1,1.09-1s.76.21.76.56-.05.32-.51.95Zm-11.64,11A9.179,9.179,0,0,1,9.86,35c-.59.91-.82,1-1.12,1a.81.81,0,0,1-.84-.76c0-.21.07-.28.54-.9A11.131,11.131,0,0,0,9.78,32a.63.63,0,0,1,.59-.46c.48-.01.86.24.86.64Zm2.57-9.65h-2v2.78h2Zm0,4.1h-2v3.06h2Zm.86,5.6c.07.57.16,1.87.16,2.83,0,.41,0,.88-.76.88s-.75-.49-.75-.72V33.75c0-.23-.07-1.27-.07-1.5a.6.6,0,0,1,.67-.65c.44,0,.68.12.75.63Zm2.48-9.7H15.07v2.78h2.07Zm0,4.1H15.07v3.06h2.07ZM18.58,33a12.768,12.768,0,0,1,.58,2.21c0,.49-.56.63-.86.63-.58,0-.62-.17-.83-1.24-.12-.6-.35-1.37-.54-2a1.9,1.9,0,0,1-.09-.46c0-.3.26-.54.77-.54S18.16,31.71,18.58,33Zm2-10.48H18.4V25.3h2.15Zm0,4.1H18.4v3.06h2.15Zm2.21,6.18a9.248,9.248,0,0,1,1.34,2.36c0,.53-.56.77-.92.77s-.44-.07-1-1.11c-.33-.61-.56-1-1.26-2.1-.21-.34-.3-.46-.3-.65a.741.741,0,0,1,.7-.65c.41-.05.53.11,1.41,1.39Z" fill="#c2a979"/><path d="M28.63,29.4A12.556,12.556,0,0,1,27,32.16c-.47.62-.63.72-.89.72a.77.77,0,0,1-.71-.79c0-.24,0-.24.71-1.07a15.993,15.993,0,0,0,2.53-4.25H26.15c-.41,0-.74-.11-.74-.65a.667.667,0,0,1,.74-.65h2.48v-5c0-.49.17-.74.73-.74a.64.64,0,0,1,.67.74v5h2.22c.31,0,.73.07.73.67a.6.6,0,0,1-.554.643.613.613,0,0,1-.176-.013H30V27a15.019,15.019,0,0,0,2.16,3,.812.812,0,0,1,.24.51.74.74,0,0,1-.68.72c-.26,0-.44-.19-.65-.49a16.628,16.628,0,0,1-1-1.62v6.47c0,.33-.09.72-.7.72a.62.62,0,0,1-.7-.524.614.614,0,0,1,0-.2Zm-1.46-7.32a11.139,11.139,0,0,1,.52,2c0,.44-.47.58-.73.58-.41,0-.44-.1-.67-1-.14-.57-.3-1-.58-1.87a1.484,1.484,0,0,1-.11-.45c0-.41.48-.55.71-.55C26.71,20.74,26.76,20.88,27.17,22.08ZM33,21.32a11.729,11.729,0,0,1-.72,2.44c-.31.81-.45.93-.75.93s-.69-.14-.69-.56a15.419,15.419,0,0,1,.53-1.58c.07-.23.33-1.26.42-1.46a.46.46,0,0,1,.42-.33C32.7,20.76,33,21,33,21.32Zm7.89,8c.72-.14.85.42.85.75s-.18.53-.6.62L39.86,31v4.5a.641.641,0,0,1-.72.74c-.57,0-.8-.21-.8-.74V31.25l-5.11,1a.64.64,0,0,1-.83-.68.6.6,0,0,1,.548-.648l.032,0,5.36-1.09V20.46a.651.651,0,0,1,.526-.754.631.631,0,0,1,.184-.006c.56,0,.81.2.81.76v9.05Zm-5.13-3A11.989,11.989,0,0,1,37,27.42a.508.508,0,0,1,.14.37.85.85,0,0,1-.77.81c-.21,0-.25,0-.9-.64a15.747,15.747,0,0,0-1.61-1.31c-.27-.2-.41-.32-.41-.6a.74.74,0,0,1,.69-.74,5,5,0,0,1,1.6,1Zm.85-4.44a7.946,7.946,0,0,1,.89.86.508.508,0,0,1,.13.37.76.76,0,0,1-.72.75c-.25,0-.32-.07-.9-.61s-.81-.72-1.51-1.3c-.25-.2-.39-.34-.39-.62a.69.69,0,0,1,.65-.68c.4-.01,1.34.79,1.83,1.22Z" fill="#c2a979"/><circle cx="24.06" cy="22.61" r="21.96" fill="none" stroke="#c2a979" stroke-miterlimit="10" stroke-width="0.98"/></svg>