<svg xmlns="http://www.w3.org/2000/svg" xmlns:xlink="http://www.w3.org/1999/xlink" viewBox="0 0 40 39.27"><defs><style>.cls-1{fill:none;}.cls-2{clip-path:url(#clip-path);}.cls-3{fill:#da2523;}.cls-4{fill:#e2b80c;}</style><clipPath id="clip-path" transform="translate(0 -0.36)"><rect class="cls-1" width="40" height="40"/></clipPath></defs><g id="レイヤー_2" data-name="レイヤー 2"><g id="レイヤー_1-2" data-name="レイヤー 1"><g class="cls-2"><polygon class="cls-3" points="31.1 12.39 34.09 12.39 34.09 0 25.42 0 25.42 3.23 21.54 3.23 21.54 9.31 31.1 9.31 31.1 12.39"/><path class="cls-3" d="M28.72,18.51l.42,0v-7h-7.6v6.79H11.62v6.24h8.29A9.44,9.44,0,0,1,28.72,18.51Z" transform="translate(0 -0.36)"/><rect class="cls-3" y="26.15" width="2.66" height="6.21"/><path class="cls-3" d="M19.28,27.94a10.57,10.57,0,0,1,.13-1.49H11.62v4.34h8.11A9.24,9.24,0,0,1,19.28,27.94Z" transform="translate(0 -0.36)"/><polygon class="cls-3" points="1.72 24.38 4.61 24.38 4.61 31.32 9.7 31.32 9.7 18.02 1.72 18.02 1.72 24.38"/><path class="cls-4" d="M39.71,37.94l-5.23-5.23h0A7.49,7.49,0,1,0,33,34l0,.09,5.23,5.23a1,1,0,0,0,1.41,0A1,1,0,0,0,39.71,37.94Zm-11-4.53a5.47,5.47,0,1,1,5.47-5.47A5.47,5.47,0,0,1,28.72,33.41Z" transform="translate(0 -0.36)"/></g></g></g></svg>