<svg id="_64_個の_UI_アイコンセット" data-name="64 個の UI アイコンセット" xmlns="http://www.w3.org/2000/svg" xmlns:xlink="http://www.w3.org/1999/xlink" viewBox="0 0 32 32"><defs><style>.cls-1{fill:none;}.cls-2{clip-path:url(#clip-path);}.cls-3{fill:#dc2523;}.cls-4{fill:#eec000;}.cls-5{fill:#fff;}</style><clipPath id="clip-path"><rect class="cls-1" x="4.54" y="5.32" width="24.91" height="21.35"/></clipPath></defs><g id="予約"><g class="cls-2"><path class="cls-3" d="M24.34,8.66v1.67H5.66V8.66A1.32,1.32,0,0,1,7,7.33H9.66v-2h2.67v2h5.34v-2h2.67v2H23A1.33,1.33,0,0,1,24.34,8.66Z"/><path class="cls-3" d="M19,19.67v2.67h0v.33A5.29,5.29,0,0,0,19.55,25H7a1.33,1.33,0,0,1-1.33-1.34V12.33H24.34v5a5.35,5.35,0,0,0-4.41,2.34Zm0-2h2.67V15H19Zm-8,2H8.33v2.67H11ZM11,15H8.33v2.67H11Zm5.34,4.67H13.66v2.67h2.67Zm0-4.67H13.66v2.67h2.67Z"/><circle class="cls-4" cx="24.34" cy="22.67" r="4"/><polygon class="cls-5" points="26.68 21.8 25.94 21.07 23.85 23.15 22.74 22.05 22 22.79 23.85 24.63 26.68 21.8"/></g></g></svg>